<svg xmlns="http://www.w3.org/2000/svg" width="1672" height="1672" viewBox="0 0 1672 1672" version="1.1"><path d="M 795 139.674 C 790.325 139.820, 778.625 140.416, 769 140.999 C 759.375 141.581, 743.400 142.962, 733.500 144.067 C 723.600 145.172, 708.300 147.194, 699.500 148.560 C 690.700 149.926, 675.625 152.621, 666 154.550 C 656.375 156.479, 639.013 160.496, 627.417 163.477 C 615.821 166.457, 598.271 171.435, 588.417 174.538 C 578.563 177.641, 563.166 182.863, 554.202 186.141 C 545.238 189.419, 531.063 194.958, 522.702 198.450 C 514.341 201.942, 500.075 208.255, 491 212.480 C 481.925 216.705, 469.775 222.679, 464 225.756 C 458.225 228.832, 447.975 234.430, 441.221 238.194 C 434.468 241.958, 423.668 248.257, 417.221 252.192 C 410.775 256.127, 398.750 263.843, 390.500 269.339 C 382.250 274.835, 369.650 283.592, 362.500 288.800 C 355.350 294.007, 342.075 304.236, 333 311.529 C 323.925 318.823, 310.478 330.091, 303.119 336.569 C 295.759 343.047, 281.697 356.197, 271.869 365.793 C 262.041 375.388, 254 383.600, 254 384.042 C 254 384.483, 261.936 393.767, 271.635 404.672 C 281.334 415.578, 301.472 437.996, 316.385 454.492 C 331.298 470.987, 351.543 493.262, 361.373 503.992 C 371.203 514.721, 380.060 524.357, 381.055 525.405 C 382.824 527.266, 382.977 527.186, 387.806 521.905 C 390.524 518.932, 400.567 509.219, 410.124 500.321 C 419.681 491.422, 433.800 478.882, 441.500 472.453 C 449.200 466.024, 462.250 455.693, 470.500 449.495 C 478.750 443.297, 491.350 434.300, 498.500 429.503 C 505.650 424.705, 518.527 416.587, 527.116 411.463 C 535.705 406.338, 549.205 398.759, 557.116 394.620 C 565.027 390.480, 577.575 384.322, 585 380.935 C 592.425 377.548, 605.700 371.950, 614.500 368.496 C 623.300 365.042, 638.150 359.742, 647.500 356.720 C 656.850 353.697, 671.700 349.398, 680.500 347.165 C 689.300 344.933, 703.700 341.752, 712.500 340.097 C 721.300 338.442, 733.450 336.406, 739.500 335.572 C 745.550 334.738, 755 333.584, 760.500 333.008 C 766 332.432, 780.175 331.557, 792 331.064 C 804.681 330.535, 822.319 330.535, 835 331.064 C 846.825 331.557, 863.025 332.660, 871 333.515 C 878.975 334.370, 891.125 335.959, 898 337.047 C 904.875 338.135, 915.225 339.957, 921 341.095 C 926.775 342.233, 937.800 344.723, 945.500 346.629 C 953.200 348.535, 966.475 352.164, 975 354.694 C 983.525 357.223, 997.475 361.857, 1006 364.992 C 1014.525 368.126, 1027.350 373.103, 1034.500 376.052 C 1041.650 379.001, 1057.175 386.206, 1069 392.062 C 1080.825 397.919, 1098.150 407.094, 1107.500 412.451 C 1116.850 417.808, 1132.947 427.786, 1143.271 434.624 C 1153.595 441.462, 1170.020 453.066, 1179.771 460.409 C 1189.522 467.753, 1203.167 478.507, 1210.094 484.308 C 1217.021 490.108, 1227.596 499.269, 1233.594 504.665 C 1239.592 510.062, 1250.707 520.532, 1258.294 527.932 C 1272.089 541.388, 1272.089 541.388, 1276.914 536.444 C 1279.568 533.725, 1309.023 503.035, 1342.370 468.245 C 1375.716 433.455, 1403.002 404.430, 1403.004 403.745 C 1403.006 403.060, 1391.193 390.776, 1376.754 376.447 C 1362.314 362.119, 1345.100 345.659, 1338.500 339.870 C 1331.900 334.082, 1321.195 324.993, 1314.710 319.672 C 1308.226 314.352, 1295.106 304.155, 1285.555 297.013 C 1276.005 289.871, 1260.160 278.682, 1250.345 272.147 C 1240.530 265.612, 1226.875 256.891, 1220 252.767 C 1213.125 248.642, 1201.825 242.091, 1194.889 238.209 C 1187.954 234.327, 1174.522 227.267, 1165.042 222.521 C 1155.561 217.775, 1141.211 210.934, 1133.152 207.320 C 1125.094 203.706, 1110.128 197.448, 1099.895 193.415 C 1089.663 189.381, 1071.888 182.949, 1060.395 179.122 C 1048.903 175.294, 1031.925 170.086, 1022.667 167.548 C 1013.408 165.009, 999.057 161.364, 990.775 159.448 C 982.493 157.531, 967.504 154.408, 957.467 152.507 C 947.430 150.606, 930.956 147.937, 920.859 146.576 C 910.761 145.215, 895.075 143.410, 886 142.564 C 876.925 141.719, 858.700 140.574, 845.500 140.019 C 832.300 139.465, 817.450 139.101, 812.500 139.209 C 807.550 139.318, 799.675 139.527, 795 139.674 M 788.020 489.129 C 781.156 489.591, 768.556 490.892, 760.020 492.019 C 751.484 493.147, 737.750 495.418, 729.500 497.066 C 721.250 498.715, 708.501 501.649, 701.168 503.586 C 693.836 505.522, 681.727 509.128, 674.260 511.597 C 666.792 514.067, 653.891 518.827, 645.591 522.176 C 637.291 525.524, 623.703 531.589, 615.397 535.654 C 607.090 539.718, 594.040 546.696, 586.397 551.160 C 578.753 555.624, 565.975 563.690, 558 569.083 C 550.025 574.477, 538.638 582.686, 532.695 587.326 C 526.752 591.965, 516.177 600.740, 509.195 606.824 C 502.213 612.909, 492.319 622.102, 487.209 627.254 C 477.918 636.620, 477.918 636.620, 495.640 656.560 C 505.388 667.527, 523.956 688.200, 536.904 702.500 C 549.852 716.800, 567.657 736.326, 576.473 745.891 C 585.288 755.456, 593.770 764.793, 595.323 766.641 C 596.875 768.488, 598.458 770, 598.840 770 C 599.222 770, 605.157 764.487, 612.029 757.750 C 618.900 751.013, 629.467 741.519, 635.511 736.653 C 641.555 731.787, 652.270 723.973, 659.323 719.288 C 666.375 714.603, 678.525 707.476, 686.323 703.449 C 694.120 699.422, 706.150 693.912, 713.055 691.205 C 719.960 688.499, 730.310 684.891, 736.055 683.189 C 741.800 681.488, 750.550 679.203, 755.500 678.114 C 760.450 677.024, 769.414 675.408, 775.421 674.522 C 781.427 673.637, 793.240 672.498, 801.672 671.990 C 811.306 671.409, 822.996 671.427, 833.132 672.038 C 842.003 672.573, 855.126 673.909, 862.294 675.008 C 869.462 676.107, 880.916 678.380, 887.746 680.061 C 894.577 681.741, 906.663 685.360, 914.605 688.103 C 922.546 690.847, 934.464 695.543, 941.089 698.540 C 947.714 701.537, 957.717 706.508, 963.318 709.585 C 968.918 712.663, 979.800 719.373, 987.500 724.497 C 995.200 729.621, 1006.245 737.634, 1012.045 742.302 C 1017.845 746.971, 1028.260 756.240, 1035.191 762.899 C 1047.792 775.007, 1047.792 775.007, 1109.396 710.857 C 1143.278 675.575, 1171 646.257, 1171 645.705 C 1171 645.153, 1166.162 639.781, 1160.250 633.767 C 1154.338 627.753, 1143.200 617.257, 1135.500 610.443 C 1127.800 603.628, 1116.550 594.205, 1110.500 589.501 C 1104.450 584.797, 1094.100 577.191, 1087.500 572.599 C 1080.900 568.007, 1068.975 560.325, 1061 555.528 C 1053.025 550.731, 1038.078 542.613, 1027.784 537.488 C 1017.491 532.363, 1001.066 525.020, 991.284 521.169 C 981.503 517.319, 966.919 512.127, 958.875 509.631 C 950.831 507.135, 938.906 503.752, 932.375 502.113 C 925.844 500.474, 914.631 497.997, 907.458 496.609 C 900.285 495.220, 887.460 493.170, 878.958 492.054 C 870.456 490.937, 856.750 489.575, 848.500 489.027 C 840.250 488.479, 826.075 488.089, 817 488.159 C 807.925 488.230, 794.884 488.666, 788.020 489.129 M 795.500 810.098 C 791.100 810.631, 782.090 812.159, 775.479 813.493 C 768.867 814.827, 758.067 817.774, 751.479 820.041 C 744.890 822.307, 733.839 827.071, 726.919 830.627 C 720 834.183, 709.650 840.631, 703.919 844.956 C 698.189 849.281, 691.314 855.062, 688.641 857.804 C 685.167 861.369, 684.027 863.197, 684.641 864.220 C 685.114 865.006, 715.540 898.750, 752.254 939.206 C 819.009 1012.761, 819.009 1012.761, 826.316 1005.131 C 830.335 1000.934, 858.305 971.850, 888.470 940.500 C 918.636 909.150, 946.958 879.757, 951.409 875.182 C 959.500 866.864, 959.500 866.864, 953.500 861.390 C 950.200 858.379, 943.882 853.046, 939.461 849.540 C 935.039 846.033, 927.825 840.933, 923.430 838.207 C 919.034 835.480, 912.666 831.851, 909.279 830.141 C 905.892 828.431, 898.612 825.236, 893.101 823.040 C 887.591 820.845, 878.001 817.700, 871.791 816.053 C 865.581 814.405, 856.225 812.335, 851 811.454 C 845.473 810.521, 833.554 809.700, 822.500 809.490 C 812.050 809.291, 799.900 809.565, 795.500 810.098 M 470 1043.629 C 468.625 1043.893, 465.250 1044.822, 462.500 1045.694 C 459.750 1046.565, 454.800 1048.624, 451.500 1050.269 C 447.753 1052.136, 442.867 1055.932, 438.486 1060.379 C 433.574 1065.367, 430.332 1069.813, 427.664 1075.220 C 425.393 1079.825, 423.083 1086.686, 421.941 1092.220 C 420.386 1099.757, 420.024 1105.772, 420.013 1124.250 C 420 1147, 420 1147, 410.500 1147 C 401 1147, 401 1147, 401 1167.500 C 401 1188, 401 1188, 410.500 1188 C 420 1188, 420 1188, 420 1246.500 C 420 1305, 420 1305, 445.500 1305 C 471 1305, 471 1305, 471 1246.500 C 471 1188, 471 1188, 491.500 1188 C 512 1188, 512 1188, 512 1167.500 C 512 1147, 512 1147, 491.377 1147 C 470.755 1147, 470.755 1147, 471.245 1125.750 C 471.625 1109.282, 472.112 1103.491, 473.407 1100.014 C 474.326 1097.547, 476.262 1094.292, 477.709 1092.782 C 479.156 1091.271, 482.290 1089.291, 484.674 1088.381 C 487.881 1087.156, 490.499 1086.901, 494.745 1087.400 C 497.900 1087.771, 502.849 1089.158, 505.741 1090.482 C 511 1092.889, 511 1092.889, 511 1070.485 C 511 1048.080, 511 1048.080, 504.250 1045.929 C 499.195 1044.318, 494.361 1043.698, 485 1043.463 C 478.125 1043.289, 471.375 1043.364, 470 1043.629 M 906.500 1065.971 C 901.291 1067.103, 894.130 1069.608, 889.500 1071.918 C 885.100 1074.113, 879.088 1077.905, 876.141 1080.345 C 873.193 1082.785, 868.777 1087.193, 866.327 1090.141 C 863.877 1093.088, 860.900 1097.300, 859.712 1099.500 C 858.524 1101.700, 856.532 1105.927, 855.287 1108.893 C 854.041 1111.859, 852.342 1117.578, 851.511 1121.601 C 850.680 1125.624, 850 1133.363, 850 1138.798 C 850 1145.295, 850.663 1151.271, 851.935 1156.244 C 852.999 1160.404, 855.082 1166.201, 856.564 1169.126 C 858.046 1172.051, 862.013 1177.175, 865.379 1180.513 C 869.312 1184.413, 874.360 1188.049, 879.500 1190.685 C 883.900 1192.941, 896.050 1197.807, 906.500 1201.498 C 916.950 1205.189, 929.100 1209.927, 933.500 1212.026 C 937.900 1214.125, 942.995 1217.313, 944.822 1219.111 C 946.649 1220.908, 948.794 1223.636, 949.589 1225.172 C 950.383 1226.708, 951.303 1229.930, 951.632 1232.331 C 952.008 1235.076, 951.635 1238.745, 950.625 1242.217 C 949.560 1245.882, 947.728 1249.070, 945.176 1251.700 C 943.061 1253.879, 939.344 1256.617, 936.915 1257.784 C 934.487 1258.951, 929.507 1260.379, 925.848 1260.957 C 921.202 1261.690, 916.828 1261.691, 911.348 1260.958 C 905.953 1260.236, 900.994 1258.722, 895.482 1256.112 C 891.073 1254.024, 884.773 1250.159, 881.482 1247.524 C 878.192 1244.889, 873.675 1240.986, 871.446 1238.850 C 867.391 1234.967, 867.391 1234.967, 853.044 1254.684 C 838.696 1274.402, 838.696 1274.402, 843.563 1278.807 C 846.239 1281.231, 851.133 1285.294, 854.437 1287.836 C 857.741 1290.379, 864.023 1294.610, 868.397 1297.239 C 872.771 1299.867, 880.433 1303.324, 885.424 1304.921 C 890.416 1306.518, 898.265 1308.373, 902.867 1309.044 C 908.102 1309.808, 916.712 1310.065, 925.867 1309.731 C 936.937 1309.327, 942.839 1308.587, 950.106 1306.693 C 955.390 1305.315, 963.186 1302.471, 967.432 1300.371 C 971.677 1298.272, 978.031 1294.179, 981.550 1291.276 C 985.070 1288.373, 990.180 1282.822, 992.906 1278.940 C 995.632 1275.058, 999.300 1268.429, 1001.057 1264.209 C 1002.814 1259.989, 1005.089 1252.477, 1006.112 1247.518 C 1007.199 1242.254, 1007.979 1234.300, 1007.987 1228.410 C 1007.996 1221.592, 1007.358 1215.812, 1006.022 1210.585 C 1004.934 1206.331, 1002.806 1200.522, 1001.292 1197.675 C 999.779 1194.829, 995.157 1189.101, 991.020 1184.948 C 985.585 1179.489, 981.282 1176.262, 975.500 1173.305 C 971.100 1171.056, 957.337 1165.387, 944.915 1160.708 C 932.494 1156.029, 920.050 1151.046, 917.264 1149.634 C 914.477 1148.222, 911.253 1145.865, 910.098 1144.398 C 908.944 1142.930, 907.492 1140.035, 906.871 1137.964 C 906.226 1135.811, 906.033 1132.265, 906.420 1129.682 C 906.801 1127.144, 908.388 1123.385, 910.041 1121.102 C 911.660 1118.867, 914.732 1115.882, 916.867 1114.469 C 919.187 1112.934, 923.455 1111.452, 927.473 1110.786 C 932.506 1109.952, 936.119 1109.969, 941.848 1110.853 C 946.390 1111.555, 952.345 1113.392, 956.500 1115.374 C 960.350 1117.210, 965.948 1120.567, 968.941 1122.832 C 971.933 1125.098, 974.480 1126.850, 974.600 1126.726 C 974.719 1126.602, 980.230 1117.748, 986.845 1107.052 C 993.460 1096.355, 998.657 1087.253, 998.392 1086.826 C 998.128 1086.398, 994.253 1083.797, 989.781 1081.045 C 985.309 1078.293, 978.275 1074.636, 974.149 1072.918 C 970.023 1071.201, 962.339 1068.667, 957.074 1067.287 C 949.290 1065.248, 944.509 1064.708, 931.500 1064.397 C 918.329 1064.083, 913.909 1064.361, 906.500 1065.971 M 131 1187 C 131 1305, 131 1305, 158.500 1305 C 186 1305, 186 1305, 186 1187 C 186 1069, 186 1069, 158.500 1069 C 131 1069, 131 1069, 131 1187 M 698 1143.545 C 694.425 1144.307, 688.483 1146.103, 684.797 1147.535 C 681.110 1148.968, 675.400 1151.881, 672.108 1154.008 C 668.817 1156.136, 663.480 1160.520, 660.250 1163.750 C 657.020 1166.980, 652.257 1173.024, 649.666 1177.181 C 647.075 1181.338, 643.640 1188.343, 642.033 1192.747 C 640.425 1197.152, 638.358 1204.748, 637.440 1209.628 C 636.194 1216.240, 635.902 1221.683, 636.292 1231 C 636.645 1239.418, 637.511 1245.908, 638.945 1250.872 C 640.116 1254.927, 642.722 1261.576, 644.736 1265.649 C 646.750 1269.722, 650.980 1276.305, 654.135 1280.277 C 657.291 1284.250, 662.714 1289.889, 666.186 1292.808 C 669.659 1295.727, 676.100 1299.885, 680.500 1302.048 C 684.900 1304.211, 691.200 1306.702, 694.500 1307.584 C 697.800 1308.466, 706.125 1309.417, 713 1309.696 C 722.428 1310.080, 727.174 1309.811, 732.312 1308.602 C 736.058 1307.721, 741.683 1305.803, 744.812 1304.339 C 748.506 1302.611, 753.042 1299.112, 757.750 1294.359 C 765 1287.040, 765 1287.040, 765 1296.020 C 765 1305, 765 1305, 790.500 1305 C 816 1305, 816 1305, 816 1226 C 816 1147, 816 1147, 790.500 1147 C 765 1147, 765 1147, 765 1155.493 C 765 1163.987, 765 1163.987, 758.904 1157.985 C 754.919 1154.061, 750.267 1150.761, 745.469 1148.453 C 741.432 1146.511, 735.063 1144.273, 731.315 1143.479 C 727.567 1142.684, 720 1142.063, 714.500 1142.097 C 709 1142.131, 701.575 1142.783, 698 1143.545 M 1116.324 1143.928 C 1112.377 1144.997, 1107.652 1146.639, 1105.824 1147.577 C 1103.996 1148.514, 1100.646 1150.549, 1098.380 1152.099 C 1096.114 1153.649, 1091.951 1157.275, 1089.130 1160.156 C 1084 1165.395, 1084 1165.395, 1084 1156.197 C 1084 1147, 1084 1147, 1058.500 1147 C 1033 1147, 1033 1147, 1033 1266.500 C 1033 1386, 1033 1386, 1058.500 1386 C 1084 1386, 1084 1386, 1084 1336.767 C 1084 1287.535, 1084 1287.535, 1088.467 1292.197 C 1090.924 1294.761, 1094.952 1298.247, 1097.419 1299.944 C 1099.886 1301.641, 1103.850 1303.864, 1106.230 1304.884 C 1108.610 1305.904, 1113.783 1307.473, 1117.726 1308.369 C 1121.669 1309.266, 1129.154 1310, 1134.359 1310 C 1139.565 1310, 1147.155 1309.363, 1151.225 1308.584 C 1155.296 1307.805, 1161.357 1306.059, 1164.693 1304.703 C 1168.030 1303.347, 1173.401 1300.443, 1176.630 1298.250 C 1179.858 1296.057, 1185.711 1290.881, 1189.636 1286.749 C 1193.560 1282.616, 1198.603 1276.145, 1200.843 1272.367 C 1203.083 1268.590, 1206.034 1262.519, 1207.402 1258.875 C 1208.770 1255.231, 1210.643 1248.256, 1211.564 1243.375 C 1212.828 1236.684, 1213.110 1231.301, 1212.710 1221.500 C 1212.303 1211.517, 1211.567 1206.423, 1209.536 1199.549 C 1208.082 1194.626, 1205.122 1187.201, 1202.958 1183.049 C 1200.795 1178.897, 1196.776 1172.760, 1194.028 1169.410 C 1191.280 1166.061, 1186.438 1161.287, 1183.266 1158.801 C 1180.095 1156.315, 1175.025 1152.908, 1172 1151.228 C 1168.975 1149.549, 1162.675 1146.955, 1158 1145.463 C 1151.022 1143.236, 1147.173 1142.682, 1136.500 1142.368 C 1125.890 1142.055, 1122.181 1142.342, 1116.324 1143.928 M 1293.500 1143.484 C 1289.650 1144.200, 1284.250 1145.557, 1281.500 1146.498 C 1278.750 1147.439, 1273.685 1149.600, 1270.244 1151.300 C 1266.804 1153, 1261.302 1156.564, 1258.019 1159.220 C 1254.736 1161.877, 1249.761 1166.851, 1246.963 1170.275 C 1244.165 1173.699, 1239.901 1180.550, 1237.487 1185.500 C 1235.073 1190.450, 1232.063 1198.325, 1230.799 1203 C 1228.831 1210.275, 1228.509 1213.807, 1228.564 1227.500 C 1228.622 1242.005, 1228.885 1244.341, 1231.380 1252.500 C 1232.893 1257.450, 1236.015 1265.100, 1238.316 1269.500 C 1241.465 1275.520, 1244.851 1279.872, 1252 1287.085 C 1259.862 1295.017, 1262.966 1297.390, 1270 1300.841 C 1274.675 1303.135, 1282.100 1305.957, 1286.500 1307.112 C 1292.371 1308.654, 1298.758 1309.347, 1310.500 1309.717 C 1322.610 1310.097, 1328.758 1309.827, 1335.787 1308.604 C 1340.894 1307.715, 1348.227 1305.886, 1352.081 1304.539 C 1355.936 1303.192, 1361.882 1300.401, 1365.295 1298.336 C 1368.708 1296.270, 1374.726 1291.322, 1378.669 1287.340 C 1384.081 1281.874, 1386.961 1277.855, 1390.419 1270.948 C 1392.939 1265.915, 1395 1261.040, 1395 1260.116 C 1395 1258.655, 1391.893 1258.124, 1371.298 1256.064 C 1348.319 1253.766, 1347.564 1253.750, 1346.548 1255.543 C 1345.972 1256.559, 1343.546 1259.532, 1341.157 1262.148 C 1338.505 1265.054, 1335.002 1267.605, 1332.157 1268.703 C 1328.593 1270.078, 1324.684 1270.496, 1315.500 1270.484 C 1304.474 1270.470, 1303.090 1270.254, 1298.453 1267.820 C 1295.676 1266.363, 1291.924 1263.670, 1290.114 1261.836 C 1288.304 1260.001, 1285.961 1256.826, 1284.907 1254.780 C 1283.853 1252.735, 1282.318 1248.478, 1281.495 1245.320 C 1280.673 1242.163, 1280 1238.549, 1280 1237.290 C 1280 1235, 1280 1235, 1339.144 1235 C 1398.287 1235, 1398.287 1235, 1397.694 1222.250 C 1397.367 1215.237, 1396.395 1206.633, 1395.534 1203.129 C 1394.672 1199.625, 1392.785 1193.775, 1391.340 1190.129 C 1389.895 1186.483, 1386.690 1180.350, 1384.218 1176.500 C 1381.746 1172.650, 1376.942 1166.800, 1373.543 1163.500 C 1370.144 1160.200, 1364.820 1155.990, 1361.711 1154.145 C 1358.601 1152.300, 1353.258 1149.660, 1349.836 1148.278 C 1346.415 1146.896, 1339.539 1144.924, 1334.558 1143.896 C 1328.340 1142.612, 1321.581 1142.050, 1313 1142.103 C 1306.125 1142.146, 1297.350 1142.767, 1293.500 1143.484 M 1482.660 1142.989 C 1479.998 1143.468, 1474.609 1144.835, 1470.685 1146.027 C 1466.761 1147.219, 1461.289 1149.329, 1458.525 1150.717 C 1455.761 1152.104, 1450.779 1155.168, 1447.453 1157.525 C 1444.127 1159.883, 1438.642 1164.765, 1435.266 1168.375 C 1431.889 1171.985, 1427.317 1177.990, 1425.105 1181.719 C 1422.894 1185.449, 1419.977 1191.453, 1418.622 1195.062 C 1417.267 1198.672, 1415.448 1205.065, 1414.579 1209.270 C 1413.711 1213.475, 1413 1221.229, 1413 1226.500 C 1413 1231.771, 1413.713 1239.553, 1414.584 1243.792 C 1415.455 1248.031, 1417.517 1254.749, 1419.165 1258.720 C 1420.813 1262.691, 1423.962 1268.725, 1426.162 1272.129 C 1428.362 1275.534, 1432.713 1281, 1435.831 1284.277 C 1438.949 1287.553, 1444.269 1292.215, 1447.654 1294.636 C 1451.038 1297.057, 1456.758 1300.376, 1460.365 1302.012 C 1463.972 1303.647, 1470.428 1305.988, 1474.711 1307.213 C 1481.279 1309.092, 1485.009 1309.446, 1498.500 1309.471 C 1510.761 1309.493, 1516.136 1309.077, 1521.500 1307.692 C 1525.350 1306.698, 1530.975 1304.673, 1534 1303.192 C 1539.500 1300.500, 1539.500 1300.500, 1539.769 1277.750 C 1539.917 1265.237, 1539.761 1255, 1539.423 1255 C 1539.085 1255, 1537.530 1255.910, 1535.968 1257.023 C 1534.406 1258.135, 1530.286 1260.373, 1526.814 1261.995 C 1523.341 1263.618, 1517.463 1265.374, 1513.750 1265.897 C 1509.478 1266.500, 1504.533 1266.500, 1500.281 1265.898 C 1496.586 1265.374, 1491.200 1263.865, 1488.313 1262.543 C 1485.426 1261.221, 1480.796 1258.018, 1478.023 1255.425 C 1474.977 1252.576, 1471.700 1248.105, 1469.741 1244.126 C 1466.655 1237.856, 1466.500 1236.992, 1466.500 1226.021 C 1466.500 1215.171, 1466.683 1214.113, 1469.651 1207.849 C 1471.384 1204.191, 1474.634 1199.366, 1476.872 1197.128 C 1479.111 1194.889, 1483.642 1191.695, 1486.941 1190.030 C 1490.398 1188.284, 1495.813 1186.594, 1499.720 1186.040 C 1504.030 1185.429, 1508.947 1185.426, 1513.216 1186.031 C 1516.910 1186.554, 1522.159 1187.828, 1524.880 1188.863 C 1527.602 1189.897, 1531.915 1192.151, 1534.465 1193.871 C 1537.014 1195.592, 1539.303 1197, 1539.550 1197 C 1539.798 1197, 1540 1186.662, 1540 1174.026 C 1540 1151.051, 1540 1151.051, 1537.094 1149.548 C 1535.495 1148.722, 1530.208 1146.854, 1525.344 1145.397 C 1517.908 1143.170, 1514.192 1142.698, 1502 1142.433 C 1494.025 1142.260, 1485.322 1142.510, 1482.660 1142.989 M 311 1143.691 C 309.625 1143.921, 306.250 1144.822, 303.500 1145.693 C 300.750 1146.564, 296.363 1148.346, 293.752 1149.654 C 291.140 1150.962, 285.853 1155.004, 282.002 1158.637 C 275 1165.242, 275 1165.242, 275 1156.121 C 275 1147, 275 1147, 249.500 1147 C 224 1147, 224 1147, 224 1226 C 224 1305, 224 1305, 249.500 1305 C 275 1305, 275 1305, 275.008 1262.250 C 275.012 1237.674, 275.454 1216.795, 276.047 1213.138 C 276.615 1209.639, 278.148 1204.689, 279.453 1202.138 C 280.759 1199.587, 283.554 1195.837, 285.664 1193.805 C 287.774 1191.772, 291.525 1189.195, 294 1188.077 C 297.226 1186.619, 300.623 1186.040, 306 1186.032 C 311.802 1186.022, 314.648 1186.554, 318.571 1188.381 C 321.360 1189.679, 325.085 1192.488, 326.850 1194.621 C 328.614 1196.754, 330.811 1200.750, 331.732 1203.500 C 333.183 1207.834, 333.454 1214.926, 333.764 1256.750 C 334.122 1305, 334.122 1305, 359.606 1305 C 385.090 1305, 385.090 1305, 384.795 1246.250 C 384.500 1187.500, 384.500 1187.500, 381.710 1179.609 C 380.175 1175.268, 377.318 1169.305, 375.361 1166.357 C 373.405 1163.409, 369.742 1159.182, 367.222 1156.964 C 364.703 1154.746, 359.459 1151.366, 355.570 1149.453 C 351.682 1147.540, 345.350 1145.313, 341.500 1144.504 C 337.576 1143.681, 329.886 1143.087, 324 1143.154 C 318.225 1143.219, 312.375 1143.461, 311 1143.691 M 604.813 1144.470 C 602.235 1145.180, 598.056 1146.763, 595.527 1147.987 C 592.997 1149.212, 588.476 1152.454, 585.480 1155.193 C 582.483 1157.931, 578.562 1162.442, 576.766 1165.217 C 573.500 1170.262, 573.500 1170.262, 573.218 1158.631 C 572.937 1147, 572.937 1147, 547.468 1147 C 522 1147, 522 1147, 522 1226 C 522 1305, 522 1305, 547.414 1305 C 572.827 1305, 572.827 1305, 573.248 1264.250 C 573.604 1229.785, 573.931 1222.586, 575.367 1217.575 C 576.302 1214.316, 578.272 1209.434, 579.745 1206.727 C 581.219 1204.019, 584.114 1200.063, 586.178 1197.936 C 588.242 1195.809, 592.309 1192.822, 595.216 1191.299 C 600.072 1188.754, 601.391 1188.532, 611.500 1188.558 C 620.433 1188.581, 623.522 1188.997, 627.940 1190.770 C 630.933 1191.970, 633.549 1192.784, 633.755 1192.578 C 633.961 1192.373, 634.763 1182.146, 635.537 1169.852 C 636.311 1157.558, 636.957 1146.991, 636.972 1146.369 C 636.988 1145.747, 635.001 1144.734, 632.557 1144.119 C 630.114 1143.503, 623.926 1143.040, 618.807 1143.089 C 613.688 1143.139, 607.391 1143.760, 604.813 1144.470 M 1303.332 1179.795 C 1300.490 1180.808, 1296.522 1182.890, 1294.514 1184.421 C 1292.506 1185.953, 1289.644 1188.889, 1288.155 1190.945 C 1286.665 1193.002, 1284.600 1196.560, 1283.567 1198.852 C 1282.533 1201.145, 1281.913 1203.247, 1282.190 1203.524 C 1282.467 1203.800, 1298.053 1203.908, 1316.825 1203.763 C 1350.957 1203.500, 1350.957 1203.500, 1348.471 1198.134 C 1347.104 1195.183, 1344.659 1191.094, 1343.038 1189.048 C 1341.417 1187.002, 1337.258 1183.809, 1333.796 1181.953 C 1328.120 1178.911, 1326.565 1178.549, 1318 1178.266 C 1310.700 1178.026, 1307.303 1178.380, 1303.332 1179.795 M 718.500 1187.322 C 715.750 1188.026, 711.090 1189.914, 708.145 1191.517 C 705.199 1193.121, 701.041 1196.418, 698.905 1198.845 C 696.769 1201.272, 693.779 1205.787, 692.261 1208.879 C 689.728 1214.037, 689.502 1215.448, 689.519 1226 C 689.536 1236.645, 689.754 1237.944, 692.449 1243.478 C 694.051 1246.766, 697.423 1251.518, 699.943 1254.039 C 702.464 1256.559, 706.995 1259.827, 710.013 1261.301 C 713.031 1262.776, 718.200 1264.482, 721.500 1265.094 C 724.800 1265.705, 729.853 1265.931, 732.729 1265.596 C 735.605 1265.261, 740.441 1264.058, 743.476 1262.923 C 746.743 1261.701, 751.206 1258.836, 754.419 1255.900 C 757.403 1253.173, 761.006 1248.959, 762.426 1246.536 C 763.846 1244.113, 765.737 1239.288, 766.628 1235.815 C 767.766 1231.378, 768.079 1227.270, 767.682 1222 C 767.227 1215.970, 766.370 1213.039, 763.308 1207.043 C 760.555 1201.653, 758.071 1198.427, 754.344 1195.400 C 751.508 1193.098, 746.629 1190.256, 743.501 1189.086 C 740.374 1187.916, 734.594 1186.753, 730.658 1186.501 C 726.523 1186.236, 721.388 1186.583, 718.500 1187.322 M 1111 1187.374 C 1108.525 1188.055, 1104.700 1189.469, 1102.500 1190.515 C 1100.300 1191.562, 1095.995 1194.911, 1092.933 1197.959 C 1089.847 1201.030, 1086.059 1206.174, 1084.433 1209.500 C 1081.755 1214.978, 1081.500 1216.415, 1081.500 1226.021 C 1081.500 1235.876, 1081.706 1236.961, 1084.759 1243.163 C 1086.552 1246.804, 1089.927 1251.702, 1092.259 1254.046 C 1094.600 1256.399, 1099.860 1259.920, 1104 1261.904 C 1110.968 1265.245, 1112.139 1265.494, 1120.500 1265.415 C 1126.327 1265.360, 1131.086 1264.733, 1134 1263.638 C 1136.475 1262.707, 1140.861 1260.328, 1143.747 1258.353 C 1146.821 1256.248, 1150.597 1252.361, 1152.862 1248.968 C 1154.990 1245.782, 1157.525 1240.239, 1158.497 1236.649 C 1159.762 1231.974, 1160.133 1227.865, 1159.804 1222.172 C 1159.452 1216.097, 1158.669 1212.844, 1156.482 1208.374 C 1154.908 1205.157, 1151.515 1200.420, 1148.941 1197.846 C 1146.367 1195.272, 1142.065 1192.060, 1139.381 1190.707 C 1136.696 1189.355, 1132.115 1187.743, 1129.201 1187.124 C 1126.286 1186.506, 1122.011 1186.030, 1119.701 1186.067 C 1117.390 1186.105, 1113.475 1186.692, 1111 1187.374" stroke="none" fill="#fbfbfb" fill-rule="evenodd"/><path d="M 353 2.500 C 353 3.823, 341.500 4, 255.500 4 C 158.667 4, 158 4.014, 158 6 C 158 7.884, 157.333 8, 146.500 8 C 136.944 8, 135 8.254, 135 9.500 C 135 10.633, 133.778 11, 130 11 C 126.222 11, 125 11.367, 125 12.500 C 125 13.633, 123.778 14, 120 14 C 116.222 14, 115 14.367, 115 15.500 C 115 16.500, 114 17, 112 17 C 109.667 17, 109 17.444, 109 19 C 109 20.733, 108.333 21, 104 21 C 100.222 21, 99 21.367, 99 22.500 C 99 23.548, 97.944 24, 95.500 24 C 93.056 24, 92 24.452, 92 25.500 C 92 26.611, 90.833 27, 87.500 27 C 84.167 27, 83 27.389, 83 28.500 C 83 29.333, 82.111 30, 81 30 C 79.667 30, 79 30.667, 79 32 C 79 33.111, 78.333 34, 77.500 34 C 76.675 34, 76 34.675, 76 35.500 C 76 36.325, 75.325 37, 74.500 37 C 73.675 37, 73 37.675, 73 38.500 C 73 39.325, 72.325 40, 71.500 40 C 70.675 40, 70 40.675, 70 41.500 C 70 42.548, 68.944 43, 66.500 43 C 63.667 43, 63 43.381, 63 45 C 63 46.111, 62.333 47, 61.500 47 C 60.675 47, 60 47.675, 60 48.500 C 60 49.333, 59.111 50, 58 50 C 56.889 50, 56 50.667, 56 51.500 C 56 52.325, 55.325 53, 54.500 53 C 53.675 53, 53 53.675, 53 54.500 C 53 55.325, 52.325 56, 51.500 56 C 50.667 56, 50 56.889, 50 58 C 50 59.111, 49.333 60, 48.500 60 C 47.675 60, 47 60.675, 47 61.500 C 47 62.333, 46.111 63, 45 63 C 43.381 63, 43 63.667, 43 66.500 C 43 68.944, 42.548 70, 41.500 70 C 40.675 70, 40 70.675, 40 71.500 C 40 72.325, 39.325 73, 38.500 73 C 37.675 73, 37 73.675, 37 74.500 C 37 75.325, 36.325 76, 35.500 76 C 34.452 76, 34 77.056, 34 79.500 C 34 82.333, 33.619 83, 32 83 C 30.889 83, 30 83.667, 30 84.500 C 30 85.325, 29.325 86, 28.500 86 C 27.500 86, 27 87, 27 89 C 27 91, 26.500 92, 25.500 92 C 24.452 92, 24 93.056, 24 95.500 C 24 97.944, 23.548 99, 22.500 99 C 21.500 99, 21 100, 21 102 C 21 104.333, 20.556 105, 19 105 C 17.381 105, 17 105.667, 17 108.500 C 17 110.944, 16.548 112, 15.500 112 C 14.367 112, 14 113.222, 14 117 C 14 120.778, 13.633 122, 12.500 122 C 11.292 122, 11 123.556, 11 130 C 11 136.444, 10.708 138, 9.500 138 C 8.292 138, 8 139.556, 8 146 C 8 153.333, 7.833 154, 6 154 C 4.020 154, 4 154.667, 4 221 C 4 279.889, 3.818 288, 2.500 288 C 1.168 288, 1 349.389, 1 834.500 C 1 1319.611, 1.168 1381, 2.500 1381 C 3.819 1381, 4 1389.278, 4 1449.500 C 4 1517.333, 4.019 1518, 6 1518 C 7.843 1518, 8 1518.667, 8 1526.500 C 8 1533.389, 8.284 1535, 9.500 1535 C 10.708 1535, 11 1536.556, 11 1543 C 11 1549.444, 11.292 1551, 12.500 1551 C 13.548 1551, 14 1552.056, 14 1554.500 C 14 1556.944, 14.452 1558, 15.500 1558 C 16.611 1558, 17 1559.167, 17 1562.500 C 17 1566.333, 17.296 1567, 19 1567 C 20.333 1567, 21 1567.667, 21 1569 C 21 1570.111, 21.667 1571, 22.500 1571 C 23.500 1571, 24 1572, 24 1574 C 24 1576, 24.500 1577, 25.500 1577 C 26.548 1577, 27 1578.056, 27 1580.500 C 27 1582.944, 27.452 1584, 28.500 1584 C 29.633 1584, 30 1585.222, 30 1589 C 30 1593.333, 30.267 1594, 32 1594 C 33.111 1594, 34 1594.667, 34 1595.500 C 34 1596.325, 34.675 1597, 35.500 1597 C 36.325 1597, 37 1597.675, 37 1598.500 C 37 1599.325, 37.675 1600, 38.500 1600 C 39.325 1600, 40 1600.675, 40 1601.500 C 40 1602.325, 40.675 1603, 41.500 1603 C 42.548 1603, 43 1604.056, 43 1606.500 C 43 1609.333, 43.381 1610, 45 1610 C 46.111 1610, 47 1610.667, 47 1611.500 C 47 1612.325, 47.675 1613, 48.500 1613 C 49.325 1613, 50 1613.675, 50 1614.500 C 50 1615.325, 50.675 1616, 51.500 1616 C 52.333 1616, 53 1616.889, 53 1618 C 53 1619.111, 53.667 1620, 54.500 1620 C 55.325 1620, 56 1620.675, 56 1621.500 C 56 1622.333, 56.889 1623, 58 1623 C 59.111 1623, 60 1623.667, 60 1624.500 C 60 1625.500, 61 1626, 63 1626 C 65 1626, 66 1626.500, 66 1627.500 C 66 1628.333, 66.889 1629, 68 1629 C 69.333 1629, 70 1629.667, 70 1631 C 70 1632.111, 70.667 1633, 71.500 1633 C 72.325 1633, 73 1633.675, 73 1634.500 C 73 1635.325, 73.675 1636, 74.500 1636 C 75.325 1636, 76 1636.675, 76 1637.500 C 76 1638.325, 76.675 1639, 77.500 1639 C 78.325 1639, 79 1639.675, 79 1640.500 C 79 1641.548, 80.056 1642, 82.500 1642 C 85.333 1642, 86 1642.381, 86 1644 C 86 1645.556, 86.667 1646, 89 1646 C 91 1646, 92 1646.500, 92 1647.500 C 92 1648.548, 93.056 1649, 95.500 1649 C 97.944 1649, 99 1649.452, 99 1650.500 C 99 1651.500, 100 1652, 102 1652 C 104.333 1652, 105 1652.444, 105 1654 C 105 1655.733, 105.667 1656, 110 1656 C 113.778 1656, 115 1656.367, 115 1657.500 C 115 1658.633, 116.222 1659, 120 1659 C 123.778 1659, 125 1659.367, 125 1660.500 C 125 1661.633, 126.222 1662, 130 1662 C 133.778 1662, 135 1662.367, 135 1663.500 C 135 1664.746, 136.944 1665, 146.500 1665 C 157.333 1665, 158 1665.116, 158 1667 C 158 1668.987, 158.667 1669, 259 1669 C 348.111 1669, 360 1669.177, 360 1670.500 C 360 1671.831, 413.944 1672, 839.500 1672 C 1265.056 1672, 1319 1671.831, 1319 1670.500 C 1319 1669.177, 1330.944 1669, 1420.500 1669 C 1521.333 1669, 1522 1668.987, 1522 1667 C 1522 1665.205, 1522.667 1665, 1528.500 1665 C 1533.611 1665, 1535 1664.679, 1535 1663.500 C 1535 1662.321, 1536.389 1662, 1541.500 1662 C 1546.611 1662, 1548 1661.679, 1548 1660.500 C 1548 1659.500, 1549 1659, 1551 1659 C 1553 1659, 1554 1658.500, 1554 1657.500 C 1554 1656.321, 1555.389 1656, 1560.500 1656 C 1566.333 1656, 1567 1655.795, 1567 1654 C 1567 1652.381, 1567.667 1652, 1570.500 1652 C 1572.944 1652, 1574 1651.548, 1574 1650.500 C 1574 1649.367, 1575.222 1649, 1579 1649 C 1582.778 1649, 1584 1648.633, 1584 1647.500 C 1584 1646.675, 1584.675 1646, 1585.500 1646 C 1586.333 1646, 1587 1645.111, 1587 1644 C 1587 1642.889, 1587.667 1642, 1588.500 1642 C 1589.325 1642, 1590 1641.325, 1590 1640.500 C 1590 1639.452, 1591.056 1639, 1593.500 1639 C 1595.944 1639, 1597 1638.548, 1597 1637.500 C 1597 1636.675, 1597.675 1636, 1598.500 1636 C 1599.325 1636, 1600 1635.325, 1600 1634.500 C 1600 1633.675, 1600.675 1633, 1601.500 1633 C 1602.333 1633, 1603 1632.111, 1603 1631 C 1603 1629.667, 1603.667 1629, 1605 1629 C 1606.111 1629, 1607 1628.333, 1607 1627.500 C 1607 1626.500, 1608 1626, 1610 1626 C 1612 1626, 1613 1625.500, 1613 1624.500 C 1613 1623.675, 1613.675 1623, 1614.500 1623 C 1615.325 1623, 1616 1622.325, 1616 1621.500 C 1616 1620.667, 1616.889 1620, 1618 1620 C 1619.333 1620, 1620 1619.333, 1620 1618 C 1620 1616.889, 1620.667 1616, 1621.500 1616 C 1622.500 1616, 1623 1615, 1623 1613 C 1623 1610.333, 1623.333 1610, 1626 1610 C 1628 1610, 1629 1609.500, 1629 1608.500 C 1629 1607.667, 1629.889 1607, 1631 1607 C 1632.619 1607, 1633 1606.333, 1633 1603.500 C 1633 1601.056, 1633.452 1600, 1634.500 1600 C 1635.325 1600, 1636 1599.325, 1636 1598.500 C 1636 1597.675, 1636.675 1597, 1637.500 1597 C 1638.325 1597, 1639 1596.325, 1639 1595.500 C 1639 1594.675, 1639.675 1594, 1640.500 1594 C 1641.548 1594, 1642 1592.944, 1642 1590.500 C 1642 1587.667, 1642.381 1587, 1644 1587 C 1645.619 1587, 1646 1586.333, 1646 1583.500 C 1646 1581.056, 1646.452 1580, 1647.500 1580 C 1648.325 1580, 1649 1579.325, 1649 1578.500 C 1649 1577.675, 1649.675 1577, 1650.500 1577 C 1651.500 1577, 1652 1576, 1652 1574 C 1652 1571.667, 1652.444 1571, 1654 1571 C 1655.733 1571, 1656 1570.333, 1656 1566 C 1656 1562.222, 1656.367 1561, 1657.500 1561 C 1658.679 1561, 1659 1559.611, 1659 1554.500 C 1659 1549.389, 1659.321 1548, 1660.500 1548 C 1661.679 1548, 1662 1546.611, 1662 1541.500 C 1662 1536.389, 1662.321 1535, 1663.500 1535 C 1664.716 1535, 1665 1533.389, 1665 1526.500 C 1665 1518.667, 1665.157 1518, 1667 1518 C 1668.978 1518, 1669 1517.333, 1669 1458 C 1669 1405.333, 1669.183 1398, 1670.500 1398 C 1671.733 1398, 1672 1396.222, 1672 1388 C 1672 1379.778, 1671.733 1378, 1670.500 1378 C 1669.244 1378, 1669 1375.889, 1669 1365 C 1669 1354.111, 1669.244 1352, 1670.500 1352 C 1671.831 1352, 1672 1294.056, 1672 836.500 C 1672 378.944, 1671.831 321, 1670.500 321 C 1669.244 321, 1669 318.889, 1669 308 C 1669 297.111, 1669.244 295, 1670.500 295 C 1671.746 295, 1672 293.056, 1672 283.500 C 1672 273.944, 1671.746 272, 1670.500 272 C 1669.184 272, 1669 264.778, 1669 213 C 1669 154.667, 1668.977 154, 1667 154 C 1665.167 154, 1665 153.333, 1665 146 C 1665 139.556, 1664.708 138, 1663.500 138 C 1662.321 138, 1662 136.611, 1662 131.500 C 1662 126.389, 1661.679 125, 1660.500 125 C 1659.321 125, 1659 123.611, 1659 118.500 C 1659 113.389, 1658.679 112, 1657.500 112 C 1656.367 112, 1656 110.778, 1656 107 C 1656 102.667, 1655.733 102, 1654 102 C 1652.444 102, 1652 101.333, 1652 99 C 1652 97, 1651.500 96, 1650.500 96 C 1649.667 96, 1649 95.111, 1649 94 C 1649 92.889, 1648.333 92, 1647.500 92 C 1646.500 92, 1646 91, 1646 89 C 1646 86.667, 1645.556 86, 1644 86 C 1642.381 86, 1642 85.333, 1642 82.500 C 1642 80.056, 1641.548 79, 1640.500 79 C 1639.675 79, 1639 78.325, 1639 77.500 C 1639 76.675, 1638.325 76, 1637.500 76 C 1636.500 76, 1636 75, 1636 73 C 1636 71, 1635.500 70, 1634.500 70 C 1633.667 70, 1633 69.111, 1633 68 C 1633 66.667, 1632.333 66, 1631 66 C 1629.889 66, 1629 65.333, 1629 64.500 C 1629 63.500, 1628 63, 1626 63 C 1624 63, 1623 62.500, 1623 61.500 C 1623 60.675, 1622.325 60, 1621.500 60 C 1620.452 60, 1620 58.944, 1620 56.500 C 1620 53.667, 1619.619 53, 1618 53 C 1616.889 53, 1616 52.333, 1616 51.500 C 1616 50.500, 1615 50, 1613 50 C 1611 50, 1610 49.500, 1610 48.500 C 1610 47.675, 1609.325 47, 1608.500 47 C 1607.667 47, 1607 46.111, 1607 45 C 1607 43.667, 1606.333 43, 1605 43 C 1603.889 43, 1603 42.333, 1603 41.500 C 1603 40.675, 1602.325 40, 1601.500 40 C 1600.675 40, 1600 39.325, 1600 38.500 C 1600 37.675, 1599.325 37, 1598.500 37 C 1597.675 37, 1597 36.325, 1597 35.500 C 1597 34.452, 1595.944 34, 1593.500 34 C 1590.667 34, 1590 33.619, 1590 32 C 1590 30.889, 1589.333 30, 1588.500 30 C 1587.675 30, 1587 29.325, 1587 28.500 C 1587 27.675, 1586.325 27, 1585.500 27 C 1584.675 27, 1584 26.325, 1584 25.500 C 1584 24.367, 1582.778 24, 1579 24 C 1575.222 24, 1574 23.633, 1574 22.500 C 1574 21.452, 1572.944 21, 1570.500 21 C 1567.667 21, 1567 20.619, 1567 19 C 1567 17.296, 1566.333 17, 1562.500 17 C 1559.167 17, 1558 16.611, 1558 15.500 C 1558 14.367, 1556.778 14, 1553 14 C 1549.222 14, 1548 13.633, 1548 12.500 C 1548 11.321, 1546.611 11, 1541.500 11 C 1536.389 11, 1535 10.679, 1535 9.500 C 1535 8.321, 1533.611 8, 1528.500 8 C 1522.667 8, 1522 7.795, 1522 6 C 1522 4.013, 1521.333 4, 1422.500 4 C 1334.722 4, 1323 3.823, 1323 2.500 C 1323 1.169, 1268.444 1, 838 1 C 407.556 1, 353 1.169, 353 2.500 M 795 139.674 C 790.325 139.820, 778.625 140.416, 769 140.999 C 759.375 141.581, 743.400 142.962, 733.500 144.067 C 723.600 145.172, 708.300 147.194, 699.500 148.560 C 690.700 149.926, 675.625 152.621, 666 154.550 C 656.375 156.479, 639.013 160.496, 627.417 163.477 C 615.821 166.457, 598.271 171.435, 588.417 174.538 C 578.563 177.641, 563.166 182.863, 554.202 186.141 C 545.238 189.419, 531.063 194.958, 522.702 198.450 C 514.341 201.942, 500.075 208.255, 491 212.480 C 481.925 216.705, 469.775 222.679, 464 225.756 C 458.225 228.832, 447.975 234.430, 441.221 238.194 C 434.468 241.958, 423.668 248.257, 417.221 252.192 C 410.775 256.127, 398.750 263.843, 390.500 269.339 C 382.250 274.835, 369.650 283.592, 362.500 288.800 C 355.350 294.007, 342.075 304.236, 333 311.529 C 323.925 318.823, 310.478 330.091, 303.119 336.569 C 295.759 343.047, 281.697 356.197, 271.869 365.793 C 262.041 375.388, 254 383.600, 254 384.042 C 254 384.483, 261.936 393.767, 271.635 404.672 C 281.334 415.578, 301.472 437.996, 316.385 454.492 C 331.298 470.987, 351.543 493.262, 361.373 503.992 C 371.203 514.721, 380.060 524.357, 381.055 525.405 C 382.824 527.266, 382.977 527.186, 387.806 521.905 C 390.524 518.932, 400.567 509.219, 410.124 500.321 C 419.681 491.422, 433.800 478.882, 441.500 472.453 C 449.200 466.024, 462.250 455.693, 470.500 449.495 C 478.750 443.297, 491.350 434.300, 498.500 429.503 C 505.650 424.705, 518.527 416.587, 527.116 411.463 C 535.705 406.338, 549.205 398.759, 557.116 394.620 C 565.027 390.480, 577.575 384.322, 585 380.935 C 592.425 377.548, 605.700 371.950, 614.500 368.496 C 623.300 365.042, 638.150 359.742, 647.500 356.720 C 656.850 353.697, 671.700 349.398, 680.500 347.165 C 689.300 344.933, 703.700 341.752, 712.500 340.097 C 721.300 338.442, 733.450 336.406, 739.500 335.572 C 745.550 334.738, 755 333.584, 760.500 333.008 C 766 332.432, 780.175 331.557, 792 331.064 C 804.681 330.535, 822.319 330.535, 835 331.064 C 846.825 331.557, 863.025 332.660, 871 333.515 C 878.975 334.370, 891.125 335.959, 898 337.047 C 904.875 338.135, 915.225 339.957, 921 341.095 C 926.775 342.233, 937.800 344.723, 945.500 346.629 C 953.200 348.535, 966.475 352.164, 975 354.694 C 983.525 357.223, 997.475 361.857, 1006 364.992 C 1014.525 368.126, 1027.350 373.103, 1034.500 376.052 C 1041.650 379.001, 1057.175 386.206, 1069 392.062 C 1080.825 397.919, 1098.150 407.094, 1107.500 412.451 C 1116.850 417.808, 1132.947 427.786, 1143.271 434.624 C 1153.595 441.462, 1170.020 453.066, 1179.771 460.409 C 1189.522 467.753, 1203.167 478.507, 1210.094 484.308 C 1217.021 490.108, 1227.596 499.269, 1233.594 504.665 C 1239.592 510.062, 1250.707 520.532, 1258.294 527.932 C 1272.089 541.388, 1272.089 541.388, 1276.914 536.444 C 1279.568 533.725, 1309.023 503.035, 1342.370 468.245 C 1375.716 433.455, 1403.002 404.430, 1403.004 403.745 C 1403.006 403.060, 1391.193 390.776, 1376.754 376.447 C 1362.314 362.119, 1345.100 345.659, 1338.500 339.870 C 1331.900 334.082, 1321.195 324.993, 1314.710 319.672 C 1308.226 314.352, 1295.106 304.155, 1285.555 297.013 C 1276.005 289.871, 1260.160 278.682, 1250.345 272.147 C 1240.530 265.612, 1226.875 256.891, 1220 252.767 C 1213.125 248.642, 1201.825 242.091, 1194.889 238.209 C 1187.954 234.327, 1174.522 227.267, 1165.042 222.521 C 1155.561 217.775, 1141.211 210.934, 1133.152 207.320 C 1125.094 203.706, 1110.128 197.448, 1099.895 193.415 C 1089.663 189.381, 1071.888 182.949, 1060.395 179.122 C 1048.903 175.294, 1031.925 170.086, 1022.667 167.548 C 1013.408 165.009, 999.057 161.364, 990.775 159.448 C 982.493 157.531, 967.504 154.408, 957.467 152.507 C 947.430 150.606, 930.956 147.937, 920.859 146.576 C 910.761 145.215, 895.075 143.410, 886 142.564 C 876.925 141.719, 858.700 140.574, 845.500 140.019 C 832.300 139.465, 817.450 139.101, 812.500 139.209 C 807.550 139.318, 799.675 139.527, 795 139.674 M 788.020 489.129 C 781.156 489.591, 768.556 490.892, 760.020 492.019 C 751.484 493.147, 737.750 495.418, 729.500 497.066 C 721.250 498.715, 708.501 501.649, 701.168 503.586 C 693.836 505.522, 681.727 509.128, 674.260 511.597 C 666.792 514.067, 653.891 518.827, 645.591 522.176 C 637.291 525.524, 623.703 531.589, 615.397 535.654 C 607.090 539.718, 594.040 546.696, 586.397 551.160 C 578.753 555.624, 565.975 563.690, 558 569.083 C 550.025 574.477, 538.638 582.686, 532.695 587.326 C 526.752 591.965, 516.177 600.740, 509.195 606.824 C 502.213 612.909, 492.319 622.102, 487.209 627.254 C 477.918 636.620, 477.918 636.620, 495.640 656.560 C 505.388 667.527, 523.956 688.200, 536.904 702.500 C 549.852 716.800, 567.657 736.326, 576.473 745.891 C 585.288 755.456, 593.770 764.793, 595.323 766.641 C 596.875 768.488, 598.458 770, 598.840 770 C 599.222 770, 605.157 764.487, 612.029 757.750 C 618.900 751.013, 629.467 741.519, 635.511 736.653 C 641.555 731.787, 652.270 723.973, 659.323 719.288 C 666.375 714.603, 678.525 707.476, 686.323 703.449 C 694.120 699.422, 706.150 693.912, 713.055 691.205 C 719.960 688.499, 730.310 684.891, 736.055 683.189 C 741.800 681.488, 750.550 679.203, 755.500 678.114 C 760.450 677.024, 769.414 675.408, 775.421 674.522 C 781.427 673.637, 793.240 672.498, 801.672 671.990 C 811.306 671.409, 822.996 671.427, 833.132 672.038 C 842.003 672.573, 855.126 673.909, 862.294 675.008 C 869.462 676.107, 880.916 678.380, 887.746 680.061 C 894.577 681.741, 906.663 685.360, 914.605 688.103 C 922.546 690.847, 934.464 695.543, 941.089 698.540 C 947.714 701.537, 957.717 706.508, 963.318 709.585 C 968.918 712.663, 979.800 719.373, 987.500 724.497 C 995.200 729.621, 1006.245 737.634, 1012.045 742.302 C 1017.845 746.971, 1028.260 756.240, 1035.191 762.899 C 1047.792 775.007, 1047.792 775.007, 1109.396 710.857 C 1143.278 675.575, 1171 646.257, 1171 645.705 C 1171 645.153, 1166.162 639.781, 1160.250 633.767 C 1154.338 627.753, 1143.200 617.257, 1135.500 610.443 C 1127.800 603.628, 1116.550 594.205, 1110.500 589.501 C 1104.450 584.797, 1094.100 577.191, 1087.500 572.599 C 1080.900 568.007, 1068.975 560.325, 1061 555.528 C 1053.025 550.731, 1038.078 542.613, 1027.784 537.488 C 1017.491 532.363, 1001.066 525.020, 991.284 521.169 C 981.503 517.319, 966.919 512.127, 958.875 509.631 C 950.831 507.135, 938.906 503.752, 932.375 502.113 C 925.844 500.474, 914.631 497.997, 907.458 496.609 C 900.285 495.220, 887.460 493.170, 878.958 492.054 C 870.456 490.937, 856.750 489.575, 848.500 489.027 C 840.250 488.479, 826.075 488.089, 817 488.159 C 807.925 488.230, 794.884 488.666, 788.020 489.129 M 795.500 810.098 C 791.100 810.631, 782.090 812.159, 775.479 813.493 C 768.867 814.827, 758.067 817.774, 751.479 820.041 C 744.890 822.307, 733.839 827.071, 726.919 830.627 C 720 834.183, 709.650 840.631, 703.919 844.956 C 698.189 849.281, 691.314 855.062, 688.641 857.804 C 685.167 861.369, 684.027 863.197, 684.641 864.220 C 685.114 865.006, 715.540 898.750, 752.254 939.206 C 819.009 1012.761, 819.009 1012.761, 826.316 1005.131 C 830.335 1000.934, 858.305 971.850, 888.470 940.500 C 918.636 909.150, 946.958 879.757, 951.409 875.182 C 959.500 866.864, 959.500 866.864, 953.500 861.390 C 950.200 858.379, 943.882 853.046, 939.461 849.540 C 935.039 846.033, 927.825 840.933, 923.430 838.207 C 919.034 835.480, 912.666 831.851, 909.279 830.141 C 905.892 828.431, 898.612 825.236, 893.101 823.040 C 887.591 820.845, 878.001 817.700, 871.791 816.053 C 865.581 814.405, 856.225 812.335, 851 811.454 C 845.473 810.521, 833.554 809.700, 822.500 809.490 C 812.050 809.291, 799.900 809.565, 795.500 810.098 M 470 1043.629 C 468.625 1043.893, 465.250 1044.822, 462.500 1045.694 C 459.750 1046.565, 454.800 1048.624, 451.500 1050.269 C 447.753 1052.136, 442.867 1055.932, 438.486 1060.379 C 433.574 1065.367, 430.332 1069.813, 427.664 1075.220 C 425.393 1079.825, 423.083 1086.686, 421.941 1092.220 C 420.386 1099.757, 420.024 1105.772, 420.013 1124.250 C 420 1147, 420 1147, 410.500 1147 C 401 1147, 401 1147, 401 1167.500 C 401 1188, 401 1188, 410.500 1188 C 420 1188, 420 1188, 420 1246.500 C 420 1305, 420 1305, 445.500 1305 C 471 1305, 471 1305, 471 1246.500 C 471 1188, 471 1188, 491.500 1188 C 512 1188, 512 1188, 512 1167.500 C 512 1147, 512 1147, 491.377 1147 C 470.755 1147, 470.755 1147, 471.245 1125.750 C 471.625 1109.282, 472.112 1103.491, 473.407 1100.014 C 474.326 1097.547, 476.262 1094.292, 477.709 1092.782 C 479.156 1091.271, 482.290 1089.291, 484.674 1088.381 C 487.881 1087.156, 490.499 1086.901, 494.745 1087.400 C 497.900 1087.771, 502.849 1089.158, 505.741 1090.482 C 511 1092.889, 511 1092.889, 511 1070.485 C 511 1048.080, 511 1048.080, 504.250 1045.929 C 499.195 1044.318, 494.361 1043.698, 485 1043.463 C 478.125 1043.289, 471.375 1043.364, 470 1043.629 M 906.500 1065.971 C 901.291 1067.103, 894.130 1069.608, 889.500 1071.918 C 885.100 1074.113, 879.088 1077.905, 876.141 1080.345 C 873.193 1082.785, 868.777 1087.193, 866.327 1090.141 C 863.877 1093.088, 860.900 1097.300, 859.712 1099.500 C 858.524 1101.700, 856.532 1105.927, 855.287 1108.893 C 854.041 1111.859, 852.342 1117.578, 851.511 1121.601 C 850.680 1125.624, 850 1133.363, 850 1138.798 C 850 1145.295, 850.663 1151.271, 851.935 1156.244 C 852.999 1160.404, 855.082 1166.201, 856.564 1169.126 C 858.046 1172.051, 862.013 1177.175, 865.379 1180.513 C 869.312 1184.413, 874.360 1188.049, 879.500 1190.685 C 883.900 1192.941, 896.050 1197.807, 906.500 1201.498 C 916.950 1205.189, 929.100 1209.927, 933.500 1212.026 C 937.900 1214.125, 942.995 1217.313, 944.822 1219.111 C 946.649 1220.908, 948.794 1223.636, 949.589 1225.172 C 950.383 1226.708, 951.303 1229.930, 951.632 1232.331 C 952.008 1235.076, 951.635 1238.745, 950.625 1242.217 C 949.560 1245.882, 947.728 1249.070, 945.176 1251.700 C 943.061 1253.879, 939.344 1256.617, 936.915 1257.784 C 934.487 1258.951, 929.507 1260.379, 925.848 1260.957 C 921.202 1261.690, 916.828 1261.691, 911.348 1260.958 C 905.953 1260.236, 900.994 1258.722, 895.482 1256.112 C 891.073 1254.024, 884.773 1250.159, 881.482 1247.524 C 878.192 1244.889, 873.675 1240.986, 871.446 1238.850 C 867.391 1234.967, 867.391 1234.967, 853.044 1254.684 C 838.696 1274.402, 838.696 1274.402, 843.563 1278.807 C 846.239 1281.231, 851.133 1285.294, 854.437 1287.836 C 857.741 1290.379, 864.023 1294.610, 868.397 1297.239 C 872.771 1299.867, 880.433 1303.324, 885.424 1304.921 C 890.416 1306.518, 898.265 1308.373, 902.867 1309.044 C 908.102 1309.808, 916.712 1310.065, 925.867 1309.731 C 936.937 1309.327, 942.839 1308.587, 950.106 1306.693 C 955.390 1305.315, 963.186 1302.471, 967.432 1300.371 C 971.677 1298.272, 978.031 1294.179, 981.550 1291.276 C 985.070 1288.373, 990.180 1282.822, 992.906 1278.940 C 995.632 1275.058, 999.300 1268.429, 1001.057 1264.209 C 1002.814 1259.989, 1005.089 1252.477, 1006.112 1247.518 C 1007.199 1242.254, 1007.979 1234.300, 1007.987 1228.410 C 1007.996 1221.592, 1007.358 1215.812, 1006.022 1210.585 C 1004.934 1206.331, 1002.806 1200.522, 1001.292 1197.675 C 999.779 1194.829, 995.157 1189.101, 991.020 1184.948 C 985.585 1179.489, 981.282 1176.262, 975.500 1173.305 C 971.100 1171.056, 957.337 1165.387, 944.915 1160.708 C 932.494 1156.029, 920.050 1151.046, 917.264 1149.634 C 914.477 1148.222, 911.253 1145.865, 910.098 1144.398 C 908.944 1142.930, 907.492 1140.035, 906.871 1137.964 C 906.226 1135.811, 906.033 1132.265, 906.420 1129.682 C 906.801 1127.144, 908.388 1123.385, 910.041 1121.102 C 911.660 1118.867, 914.732 1115.882, 916.867 1114.469 C 919.187 1112.934, 923.455 1111.452, 927.473 1110.786 C 932.506 1109.952, 936.119 1109.969, 941.848 1110.853 C 946.390 1111.555, 952.345 1113.392, 956.500 1115.374 C 960.350 1117.210, 965.948 1120.567, 968.941 1122.832 C 971.933 1125.098, 974.480 1126.850, 974.600 1126.726 C 974.719 1126.602, 980.230 1117.748, 986.845 1107.052 C 993.460 1096.355, 998.657 1087.253, 998.392 1086.826 C 998.128 1086.398, 994.253 1083.797, 989.781 1081.045 C 985.309 1078.293, 978.275 1074.636, 974.149 1072.918 C 970.023 1071.201, 962.339 1068.667, 957.074 1067.287 C 949.290 1065.248, 944.509 1064.708, 931.500 1064.397 C 918.329 1064.083, 913.909 1064.361, 906.500 1065.971 M 131 1187 C 131 1305, 131 1305, 158.500 1305 C 186 1305, 186 1305, 186 1187 C 186 1069, 186 1069, 158.500 1069 C 131 1069, 131 1069, 131 1187 M 698 1143.545 C 694.425 1144.307, 688.483 1146.103, 684.797 1147.535 C 681.110 1148.968, 675.400 1151.881, 672.108 1154.008 C 668.817 1156.136, 663.480 1160.520, 660.250 1163.750 C 657.020 1166.980, 652.257 1173.024, 649.666 1177.181 C 647.075 1181.338, 643.640 1188.343, 642.033 1192.747 C 640.425 1197.152, 638.358 1204.748, 637.440 1209.628 C 636.194 1216.240, 635.902 1221.683, 636.292 1231 C 636.645 1239.418, 637.511 1245.908, 638.945 1250.872 C 640.116 1254.927, 642.722 1261.576, 644.736 1265.649 C 646.750 1269.722, 650.980 1276.305, 654.135 1280.277 C 657.291 1284.250, 662.714 1289.889, 666.186 1292.808 C 669.659 1295.727, 676.100 1299.885, 680.500 1302.048 C 684.900 1304.211, 691.200 1306.702, 694.500 1307.584 C 697.800 1308.466, 706.125 1309.417, 713 1309.696 C 722.428 1310.080, 727.174 1309.811, 732.312 1308.602 C 736.058 1307.721, 741.683 1305.803, 744.812 1304.339 C 748.506 1302.611, 753.042 1299.112, 757.750 1294.359 C 765 1287.040, 765 1287.040, 765 1296.020 C 765 1305, 765 1305, 790.500 1305 C 816 1305, 816 1305, 816 1226 C 816 1147, 816 1147, 790.500 1147 C 765 1147, 765 1147, 765 1155.493 C 765 1163.987, 765 1163.987, 758.904 1157.985 C 754.919 1154.061, 750.267 1150.761, 745.469 1148.453 C 741.432 1146.511, 735.063 1144.273, 731.315 1143.479 C 727.567 1142.684, 720 1142.063, 714.500 1142.097 C 709 1142.131, 701.575 1142.783, 698 1143.545 M 1116.324 1143.928 C 1112.377 1144.997, 1107.652 1146.639, 1105.824 1147.577 C 1103.996 1148.514, 1100.646 1150.549, 1098.380 1152.099 C 1096.114 1153.649, 1091.951 1157.275, 1089.130 1160.156 C 1084 1165.395, 1084 1165.395, 1084 1156.197 C 1084 1147, 1084 1147, 1058.500 1147 C 1033 1147, 1033 1147, 1033 1266.500 C 1033 1386, 1033 1386, 1058.500 1386 C 1084 1386, 1084 1386, 1084 1336.767 C 1084 1287.535, 1084 1287.535, 1088.467 1292.197 C 1090.924 1294.761, 1094.952 1298.247, 1097.419 1299.944 C 1099.886 1301.641, 1103.850 1303.864, 1106.230 1304.884 C 1108.610 1305.904, 1113.783 1307.473, 1117.726 1308.369 C 1121.669 1309.266, 1129.154 1310, 1134.359 1310 C 1139.565 1310, 1147.155 1309.363, 1151.225 1308.584 C 1155.296 1307.805, 1161.357 1306.059, 1164.693 1304.703 C 1168.030 1303.347, 1173.401 1300.443, 1176.630 1298.250 C 1179.858 1296.057, 1185.711 1290.881, 1189.636 1286.749 C 1193.560 1282.616, 1198.603 1276.145, 1200.843 1272.367 C 1203.083 1268.590, 1206.034 1262.519, 1207.402 1258.875 C 1208.770 1255.231, 1210.643 1248.256, 1211.564 1243.375 C 1212.828 1236.684, 1213.110 1231.301, 1212.710 1221.500 C 1212.303 1211.517, 1211.567 1206.423, 1209.536 1199.549 C 1208.082 1194.626, 1205.122 1187.201, 1202.958 1183.049 C 1200.795 1178.897, 1196.776 1172.760, 1194.028 1169.410 C 1191.280 1166.061, 1186.438 1161.287, 1183.266 1158.801 C 1180.095 1156.315, 1175.025 1152.908, 1172 1151.228 C 1168.975 1149.549, 1162.675 1146.955, 1158 1145.463 C 1151.022 1143.236, 1147.173 1142.682, 1136.500 1142.368 C 1125.890 1142.055, 1122.181 1142.342, 1116.324 1143.928 M 1293.500 1143.484 C 1289.650 1144.200, 1284.250 1145.557, 1281.500 1146.498 C 1278.750 1147.439, 1273.685 1149.600, 1270.244 1151.300 C 1266.804 1153, 1261.302 1156.564, 1258.019 1159.220 C 1254.736 1161.877, 1249.761 1166.851, 1246.963 1170.275 C 1244.165 1173.699, 1239.901 1180.550, 1237.487 1185.500 C 1235.073 1190.450, 1232.063 1198.325, 1230.799 1203 C 1228.831 1210.275, 1228.509 1213.807, 1228.564 1227.500 C 1228.622 1242.005, 1228.885 1244.341, 1231.380 1252.500 C 1232.893 1257.450, 1236.015 1265.100, 1238.316 1269.500 C 1241.465 1275.520, 1244.851 1279.872, 1252 1287.085 C 1259.862 1295.017, 1262.966 1297.390, 1270 1300.841 C 1274.675 1303.135, 1282.100 1305.957, 1286.500 1307.112 C 1292.371 1308.654, 1298.758 1309.347, 1310.500 1309.717 C 1322.610 1310.097, 1328.758 1309.827, 1335.787 1308.604 C 1340.894 1307.715, 1348.227 1305.886, 1352.081 1304.539 C 1355.936 1303.192, 1361.882 1300.401, 1365.295 1298.336 C 1368.708 1296.270, 1374.726 1291.322, 1378.669 1287.340 C 1384.081 1281.874, 1386.961 1277.855, 1390.419 1270.948 C 1392.939 1265.915, 1395 1261.040, 1395 1260.116 C 1395 1258.655, 1391.893 1258.124, 1371.298 1256.064 C 1348.319 1253.766, 1347.564 1253.750, 1346.548 1255.543 C 1345.972 1256.559, 1343.546 1259.532, 1341.157 1262.148 C 1338.505 1265.054, 1335.002 1267.605, 1332.157 1268.703 C 1328.593 1270.078, 1324.684 1270.496, 1315.500 1270.484 C 1304.474 1270.470, 1303.090 1270.254, 1298.453 1267.820 C 1295.676 1266.363, 1291.924 1263.670, 1290.114 1261.836 C 1288.304 1260.001, 1285.961 1256.826, 1284.907 1254.780 C 1283.853 1252.735, 1282.318 1248.478, 1281.495 1245.320 C 1280.673 1242.163, 1280 1238.549, 1280 1237.290 C 1280 1235, 1280 1235, 1339.144 1235 C 1398.287 1235, 1398.287 1235, 1397.694 1222.250 C 1397.367 1215.237, 1396.395 1206.633, 1395.534 1203.129 C 1394.672 1199.625, 1392.785 1193.775, 1391.340 1190.129 C 1389.895 1186.483, 1386.690 1180.350, 1384.218 1176.500 C 1381.746 1172.650, 1376.942 1166.800, 1373.543 1163.500 C 1370.144 1160.200, 1364.820 1155.990, 1361.711 1154.145 C 1358.601 1152.300, 1353.258 1149.660, 1349.836 1148.278 C 1346.415 1146.896, 1339.539 1144.924, 1334.558 1143.896 C 1328.340 1142.612, 1321.581 1142.050, 1313 1142.103 C 1306.125 1142.146, 1297.350 1142.767, 1293.500 1143.484 M 1482.660 1142.989 C 1479.998 1143.468, 1474.609 1144.835, 1470.685 1146.027 C 1466.761 1147.219, 1461.289 1149.329, 1458.525 1150.717 C 1455.761 1152.104, 1450.779 1155.168, 1447.453 1157.525 C 1444.127 1159.883, 1438.642 1164.765, 1435.266 1168.375 C 1431.889 1171.985, 1427.317 1177.990, 1425.105 1181.719 C 1422.894 1185.449, 1419.977 1191.453, 1418.622 1195.062 C 1417.267 1198.672, 1415.448 1205.065, 1414.579 1209.270 C 1413.711 1213.475, 1413 1221.229, 1413 1226.500 C 1413 1231.771, 1413.713 1239.553, 1414.584 1243.792 C 1415.455 1248.031, 1417.517 1254.749, 1419.165 1258.720 C 1420.813 1262.691, 1423.962 1268.725, 1426.162 1272.129 C 1428.362 1275.534, 1432.713 1281, 1435.831 1284.277 C 1438.949 1287.553, 1444.269 1292.215, 1447.654 1294.636 C 1451.038 1297.057, 1456.758 1300.376, 1460.365 1302.012 C 1463.972 1303.647, 1470.428 1305.988, 1474.711 1307.213 C 1481.279 1309.092, 1485.009 1309.446, 1498.500 1309.471 C 1510.761 1309.493, 1516.136 1309.077, 1521.500 1307.692 C 1525.350 1306.698, 1530.975 1304.673, 1534 1303.192 C 1539.500 1300.500, 1539.500 1300.500, 1539.769 1277.750 C 1539.917 1265.237, 1539.761 1255, 1539.423 1255 C 1539.085 1255, 1537.530 1255.910, 1535.968 1257.023 C 1534.406 1258.135, 1530.286 1260.373, 1526.814 1261.995 C 1523.341 1263.618, 1517.463 1265.374, 1513.750 1265.897 C 1509.478 1266.500, 1504.533 1266.500, 1500.281 1265.898 C 1496.586 1265.374, 1491.200 1263.865, 1488.313 1262.543 C 1485.426 1261.221, 1480.796 1258.018, 1478.023 1255.425 C 1474.977 1252.576, 1471.700 1248.105, 1469.741 1244.126 C 1466.655 1237.856, 1466.500 1236.992, 1466.500 1226.021 C 1466.500 1215.171, 1466.683 1214.113, 1469.651 1207.849 C 1471.384 1204.191, 1474.634 1199.366, 1476.872 1197.128 C 1479.111 1194.889, 1483.642 1191.695, 1486.941 1190.030 C 1490.398 1188.284, 1495.813 1186.594, 1499.720 1186.040 C 1504.030 1185.429, 1508.947 1185.426, 1513.216 1186.031 C 1516.910 1186.554, 1522.159 1187.828, 1524.880 1188.863 C 1527.602 1189.897, 1531.915 1192.151, 1534.465 1193.871 C 1537.014 1195.592, 1539.303 1197, 1539.550 1197 C 1539.798 1197, 1540 1186.662, 1540 1174.026 C 1540 1151.051, 1540 1151.051, 1537.094 1149.548 C 1535.495 1148.722, 1530.208 1146.854, 1525.344 1145.397 C 1517.908 1143.170, 1514.192 1142.698, 1502 1142.433 C 1494.025 1142.260, 1485.322 1142.510, 1482.660 1142.989 M 311 1143.691 C 309.625 1143.921, 306.250 1144.822, 303.500 1145.693 C 300.750 1146.564, 296.363 1148.346, 293.752 1149.654 C 291.140 1150.962, 285.853 1155.004, 282.002 1158.637 C 275 1165.242, 275 1165.242, 275 1156.121 C 275 1147, 275 1147, 249.500 1147 C 224 1147, 224 1147, 224 1226 C 224 1305, 224 1305, 249.500 1305 C 275 1305, 275 1305, 275.008 1262.250 C 275.012 1237.674, 275.454 1216.795, 276.047 1213.138 C 276.615 1209.639, 278.148 1204.689, 279.453 1202.138 C 280.759 1199.587, 283.554 1195.837, 285.664 1193.805 C 287.774 1191.772, 291.525 1189.195, 294 1188.077 C 297.226 1186.619, 300.623 1186.040, 306 1186.032 C 311.802 1186.022, 314.648 1186.554, 318.571 1188.381 C 321.360 1189.679, 325.085 1192.488, 326.850 1194.621 C 328.614 1196.754, 330.811 1200.750, 331.732 1203.500 C 333.183 1207.834, 333.454 1214.926, 333.764 1256.750 C 334.122 1305, 334.122 1305, 359.606 1305 C 385.090 1305, 385.090 1305, 384.795 1246.250 C 384.500 1187.500, 384.500 1187.500, 381.710 1179.609 C 380.175 1175.268, 377.318 1169.305, 375.361 1166.357 C 373.405 1163.409, 369.742 1159.182, 367.222 1156.964 C 364.703 1154.746, 359.459 1151.366, 355.570 1149.453 C 351.682 1147.540, 345.350 1145.313, 341.500 1144.504 C 337.576 1143.681, 329.886 1143.087, 324 1143.154 C 318.225 1143.219, 312.375 1143.461, 311 1143.691 M 604.813 1144.470 C 602.235 1145.180, 598.056 1146.763, 595.527 1147.987 C 592.997 1149.212, 588.476 1152.454, 585.480 1155.193 C 582.483 1157.931, 578.562 1162.442, 576.766 1165.217 C 573.500 1170.262, 573.500 1170.262, 573.218 1158.631 C 572.937 1147, 572.937 1147, 547.468 1147 C 522 1147, 522 1147, 522 1226 C 522 1305, 522 1305, 547.414 1305 C 572.827 1305, 572.827 1305, 573.248 1264.250 C 573.604 1229.785, 573.931 1222.586, 575.367 1217.575 C 576.302 1214.316, 578.272 1209.434, 579.745 1206.727 C 581.219 1204.019, 584.114 1200.063, 586.178 1197.936 C 588.242 1195.809, 592.309 1192.822, 595.216 1191.299 C 600.072 1188.754, 601.391 1188.532, 611.500 1188.558 C 620.433 1188.581, 623.522 1188.997, 627.940 1190.770 C 630.933 1191.970, 633.549 1192.784, 633.755 1192.578 C 633.961 1192.373, 634.763 1182.146, 635.537 1169.852 C 636.311 1157.558, 636.957 1146.991, 636.972 1146.369 C 636.988 1145.747, 635.001 1144.734, 632.557 1144.119 C 630.114 1143.503, 623.926 1143.040, 618.807 1143.089 C 613.688 1143.139, 607.391 1143.760, 604.813 1144.470 M 1303.332 1179.795 C 1300.490 1180.808, 1296.522 1182.890, 1294.514 1184.421 C 1292.506 1185.953, 1289.644 1188.889, 1288.155 1190.945 C 1286.665 1193.002, 1284.600 1196.560, 1283.567 1198.852 C 1282.533 1201.145, 1281.913 1203.247, 1282.190 1203.524 C 1282.467 1203.800, 1298.053 1203.908, 1316.825 1203.763 C 1350.957 1203.500, 1350.957 1203.500, 1348.471 1198.134 C 1347.104 1195.183, 1344.659 1191.094, 1343.038 1189.048 C 1341.417 1187.002, 1337.258 1183.809, 1333.796 1181.953 C 1328.120 1178.911, 1326.565 1178.549, 1318 1178.266 C 1310.700 1178.026, 1307.303 1178.380, 1303.332 1179.795 M 718.500 1187.322 C 715.750 1188.026, 711.090 1189.914, 708.145 1191.517 C 705.199 1193.121, 701.041 1196.418, 698.905 1198.845 C 696.769 1201.272, 693.779 1205.787, 692.261 1208.879 C 689.728 1214.037, 689.502 1215.448, 689.519 1226 C 689.536 1236.645, 689.754 1237.944, 692.449 1243.478 C 694.051 1246.766, 697.423 1251.518, 699.943 1254.039 C 702.464 1256.559, 706.995 1259.827, 710.013 1261.301 C 713.031 1262.776, 718.200 1264.482, 721.500 1265.094 C 724.800 1265.705, 729.853 1265.931, 732.729 1265.596 C 735.605 1265.261, 740.441 1264.058, 743.476 1262.923 C 746.743 1261.701, 751.206 1258.836, 754.419 1255.900 C 757.403 1253.173, 761.006 1248.959, 762.426 1246.536 C 763.846 1244.113, 765.737 1239.288, 766.628 1235.815 C 767.766 1231.378, 768.079 1227.270, 767.682 1222 C 767.227 1215.970, 766.370 1213.039, 763.308 1207.043 C 760.555 1201.653, 758.071 1198.427, 754.344 1195.400 C 751.508 1193.098, 746.629 1190.256, 743.501 1189.086 C 740.374 1187.916, 734.594 1186.753, 730.658 1186.501 C 726.523 1186.236, 721.388 1186.583, 718.500 1187.322 M 1111 1187.374 C 1108.525 1188.055, 1104.700 1189.469, 1102.500 1190.515 C 1100.300 1191.562, 1095.995 1194.911, 1092.933 1197.959 C 1089.847 1201.030, 1086.059 1206.174, 1084.433 1209.500 C 1081.755 1214.978, 1081.500 1216.415, 1081.500 1226.021 C 1081.500 1235.876, 1081.706 1236.961, 1084.759 1243.163 C 1086.552 1246.804, 1089.927 1251.702, 1092.259 1254.046 C 1094.600 1256.399, 1099.860 1259.920, 1104 1261.904 C 1110.968 1265.245, 1112.139 1265.494, 1120.500 1265.415 C 1126.327 1265.360, 1131.086 1264.733, 1134 1263.638 C 1136.475 1262.707, 1140.861 1260.328, 1143.747 1258.353 C 1146.821 1256.248, 1150.597 1252.361, 1152.862 1248.968 C 1154.990 1245.782, 1157.525 1240.239, 1158.497 1236.649 C 1159.762 1231.974, 1160.133 1227.865, 1159.804 1222.172 C 1159.452 1216.097, 1158.669 1212.844, 1156.482 1208.374 C 1154.908 1205.157, 1151.515 1200.420, 1148.941 1197.846 C 1146.367 1195.272, 1142.065 1192.060, 1139.381 1190.707 C 1136.696 1189.355, 1132.115 1187.743, 1129.201 1187.124 C 1126.286 1186.506, 1122.011 1186.030, 1119.701 1186.067 C 1117.390 1186.105, 1113.475 1186.692, 1111 1187.374" stroke="none" fill="#da0404" fill-rule="evenodd"/></svg>