<svg xmlns="http://www.w3.org/2000/svg" xmlns:xlink="http://www.w3.org/1999/xlink" version="1.1" width="1000" height="1000" viewBox="0 0 1000 1000" xml:space="preserve">
<desc>Created with Fabric.js 3.5.0</desc>
<defs>
</defs>
<rect x="0" y="0" width="100%" height="100%" fill="#ffffff"/>
<g transform="matrix(0.4082 0 0 -0.4082 500.045 500.0448)" id="195014">
<path style="stroke: none; stroke-width: 1; stroke-dasharray: none; stroke-linecap: butt; stroke-dashoffset: 0; stroke-linejoin: miter; stroke-miterlimit: 4; is-custom-font: none; font-file-url: none; fill: rgb(255,32,0); fill-rule: nonzero; opacity: 1;" vector-effect="non-scaling-stroke" transform=" translate(-1225, -1220)" d="M 0 1220 l 0 -1220 l 1225 0 l 1225 0 l 0 1220 l 0 1220 l -1225 0 l -1225 0 l 0 -1220 z m 1996 608 c 143 -152 207 -314 206 -523 c -1 -201 -64 -362 -200 -506 c -41 -43 -79 -79 -86 -79 c -10 0 -65 59 -119 127 l -19 24 l 66 69 c 107 114 150 223 149 375 c -2 152 -59 285 -167 383 c -53 49 -55 40 33 140 c 63 70 62 70 137 -10 z m -858 -132 c 66 -34 102 -102 105 -203 l 2 -58 l -72 -3 l -73 -3 l 0 51 c 0 41 -5 56 -26 77 c -20 20 -31 24 -56 19 c -42 -8 -55 -21 -62 -61 c -14 -71 7 -109 130 -236 c 127 -131 154 -176 162 -275 c 13 -165 -73 -273 -218 -274 c -153 0 -229 75 -230 228 l 0 72 l 70 0 l 70 0 l 0 -54 c 0 -69 26 -106 76 -106 c 59 0 81 34 74 120 c -4 56 -26 88 -135 200 c -56 58 -113 125 -125 150 c -28 54 -38 165 -20 229 c 14 54 72 117 125 137 c 49 18 160 12 203 -10 z m -698 -476 l 0 -480 l -75 0 l -75 0 l 0 480 l 0 480 l 75 0 l 75 0 l 0 -480 z m 268 3 l -3 -478 l -75 0 l -75 0 l -1 478 l -1 477 l 79 0 l 78 0 l -2 -477 z m 1071 395 c 98 -99 147 -250 123 -378 c -20 -109 -88 -227 -161 -279 l -28 -20 l -62 71 l -62 71 l 35 29 c 81 67 114 178 82 275 c -16 49 -63 110 -100 130 c -18 10 -15 16 44 82 c 34 39 66 71 70 71 c 4 0 31 -23 59 -52 z m -211 -183 c 73 -61 79 -171 12 -237 c -21 -21 -42 -38 -47 -38 c -15 0 -135 138 -131 150 c 5 15 122 149 130 150 c 3 0 20 -11 36 -25 z" stroke-linecap="round"/>
</g>
</svg>