<?xml version="1.0" standalone="no"?>
<!DOCTYPE svg PUBLIC "-//W3C//DTD SVG 20010904//EN"
 "http://www.w3.org/TR/2001/REC-SVG-20010904/DTD/svg10.dtd">
<svg version="1.0" xmlns="http://www.w3.org/2000/svg"
 width="632.000000pt" height="632.000000pt" viewBox="0 0 632.000000 632.000000"
 preserveAspectRatio="xMidYMid meet">
<metadata>
Created by potrace 1.14, written by Peter Selinger 2001-2017
</metadata>
<g transform="translate(0.000000,632.000000) scale(0.100000,-0.100000)"
fill="#000000" stroke="none">
<path d="M4810 6296 c-265 -69 -465 -270 -536 -536 -18 -68 -21 -106 -19 -195
3 -126 5 -140 30 -215 20 -64 95 -210 107 -210 4 0 8 -5 8 -11 0 -20 136 -145
198 -183 64 -38 161 -82 203 -90 13 -2 43 -9 66 -14 63 -14 238 -8 310 12 34
9 84 26 110 38 26 12 50 22 53 22 3 1 30 18 60 37 168 110 295 301 328 494 11
65 7 250 -7 297 -81 274 -230 439 -486 539 -11 4 -33 11 -50 15 -16 4 -37 9
-45 11 -8 3 -67 6 -130 8 -94 2 -131 -1 -200 -19z"/>
<path d="M1259 5495 c-2 -1 -33 -6 -69 -10 -124 -14 -281 -85 -383 -175 -41
-36 -127 -150 -127 -169 0 -6 -4 -11 -8 -11 -6 0 -32 -54 -37 -80 -1 -3 -9
-29 -18 -59 -9 -30 -15 -56 -13 -59 3 -2 0 -16 -5 -30 -5 -14 -12 -48 -14 -76
-3 -28 -7 -69 -10 -91 -13 -107 -23 -231 -42 -545 -9 -160 -9 -763 0 -940 4
-74 10 -198 13 -275 6 -176 13 -256 35 -410 6 -38 12 -81 14 -95 5 -43 16
-104 20 -120 3 -8 7 -33 10 -55 4 -22 8 -48 11 -57 3 -9 7 -26 9 -38 2 -13 14
-61 26 -109 114 -463 333 -914 579 -1196 64 -73 254 -261 305 -301 28 -21 52
-41 55 -44 22 -24 228 -169 260 -183 8 -4 29 -16 45 -27 98 -63 415 -205 505
-225 3 -1 37 -11 75 -22 67 -20 107 -30 150 -39 11 -2 43 -8 70 -14 130 -27
226 -35 420 -35 166 1 263 6 340 20 17 3 44 7 60 10 17 3 41 7 55 10 14 3 36
7 50 10 14 2 59 14 100 25 41 11 82 22 90 25 85 22 254 87 378 146 45 21 84
38 86 36 2 -1 12 5 22 14 11 9 46 31 79 48 32 18 71 41 86 52 15 10 32 19 38
19 6 0 11 4 11 8 0 5 10 14 23 21 37 19 146 103 194 149 13 12 26 22 29 22 17
0 236 235 313 335 17 22 34 45 39 50 24 31 122 175 122 180 0 3 12 24 27 48
71 109 170 312 233 477 17 47 36 94 40 105 20 48 100 313 104 345 1 9 5 21 10
28 4 6 5 12 2 12 -2 0 0 15 5 33 6 17 12 41 14 52 13 60 16 72 20 95 3 14 8
39 11 55 4 17 8 37 9 45 1 13 12 77 20 121 2 9 6 40 10 69 4 29 8 60 10 69 1
9 6 45 10 81 3 36 8 81 10 100 20 185 28 729 12 875 -45 411 -192 670 -448
783 -59 27 -92 40 -104 42 -3 1 -19 6 -37 11 -108 32 -242 31 -393 -4 -149
-35 -330 -178 -399 -317 -22 -43 -67 -170 -60 -170 3 0 0 -8 -5 -18 -5 -10
-12 -38 -16 -62 -3 -25 -8 -52 -10 -60 -9 -38 -28 -241 -41 -450 -10 -177 -19
-304 -29 -420 -3 -33 -13 -121 -20 -165 -1 -11 -6 -45 -10 -75 -4 -30 -9 -58
-11 -62 -3 -4 -7 -26 -10 -50 -4 -24 -19 -86 -35 -139 -60 -203 -127 -326
-263 -482 -82 -93 -130 -136 -185 -163 -20 -11 -37 -22 -39 -26 -2 -5 -8 -8
-13 -8 -4 0 -37 -13 -71 -29 -103 -46 -205 -75 -318 -88 -84 -9 -104 -9 -117
1 -8 5 -13 4 -13 -3 0 -7 -4 -10 -8 -7 -5 3 -37 8 -73 12 -35 3 -67 8 -70 10
-4 2 -24 6 -45 10 -22 3 -45 11 -51 16 -7 6 -13 8 -13 5 0 -3 -17 1 -37 10
-21 8 -49 20 -63 26 -14 6 -27 11 -30 12 -14 5 -57 26 -75 37 -252 158 -417
373 -501 653 -24 77 -67 283 -63 301 1 5 0 11 -1 14 -10 26 -12 106 -16 515
-4 546 -12 1023 -18 1080 -3 22 -7 71 -11 109 -6 68 -39 287 -49 336 -10 46
-40 120 -48 120 -4 0 -8 6 -8 13 0 8 -9 24 -20 37 -11 13 -20 26 -20 29 0 3
-24 31 -53 61 -52 55 -137 117 -193 142 -16 7 -31 16 -34 19 -7 10 -126 55
-194 74 -53 15 -188 29 -197 20z"/>
</g>
</svg>
