<svg id="svg" version="1.1" xmlns="http://www.w3.org/2000/svg" xmlns:xlink="http://www.w3.org/1999/xlink" width="400" height="400" viewBox="0, 0, 400,400"><g id="svgg"><path id="path0" d="M122.800 62.245 C 114.666 64.011,109.599 67.192,105.126 73.341 C 103.165 76.036,100.000 82.052,100.000 83.084 C 100.000 83.374,99.834 83.923,99.631 84.305 C 97.793 87.762,97.052 94.901,97.326 106.532 C 97.461 112.290,97.759 126.540,97.988 138.200 C 98.217 149.860,98.584 162.842,98.802 167.049 C 99.021 171.256,99.200 177.548,99.200 181.031 C 99.200 191.408,100.623 203.284,102.887 211.800 C 103.429 213.840,105.586 220.748,106.009 221.800 C 106.186 222.240,106.902 224.040,107.600 225.800 C 111.996 236.879,127.779 263.431,131.972 266.800 C 132.109 266.910,132.844 267.810,133.606 268.800 C 134.368 269.790,135.604 271.271,136.352 272.091 C 137.100 272.912,137.978 273.962,138.302 274.425 C 138.627 274.888,139.366 275.766,139.946 276.376 C 140.526 276.986,142.260 278.903,143.800 280.637 C 147.594 284.907,158.146 295.460,162.775 299.613 C 164.852 301.476,167.198 303.630,167.988 304.400 C 168.779 305.170,170.139 306.337,171.009 306.993 C 171.880 307.650,173.290 308.865,174.144 309.693 C 174.998 310.522,175.778 311.200,175.877 311.200 C 175.976 311.200,176.299 311.425,176.594 311.700 C 176.889 311.975,177.722 312.650,178.445 313.200 C 179.168 313.750,180.270 314.695,180.894 315.300 C 181.517 315.905,182.158 316.400,182.318 316.400 C 182.478 316.400,183.093 316.850,183.687 317.400 C 184.280 317.950,184.928 318.400,185.127 318.400 C 185.325 318.400,185.826 318.850,186.239 319.400 C 186.652 319.950,187.139 320.400,187.322 320.400 C 187.677 320.400,190.337 322.270,191.000 322.986 C 191.220 323.224,192.334 324.011,193.475 324.735 C 194.617 325.459,195.607 326.175,195.675 326.326 C 196.208 327.497,199.600 328.215,199.600 327.157 C 199.600 326.961,199.870 326.800,200.200 326.800 C 200.530 326.800,200.800 326.623,200.800 326.408 C 200.800 326.192,201.250 325.902,201.800 325.764 C 202.350 325.626,202.800 325.353,202.800 325.157 C 202.800 324.960,202.988 324.800,203.217 324.800 C 203.446 324.800,203.851 324.608,204.117 324.372 C 204.383 324.137,206.400 322.700,208.600 321.179 C 210.800 319.657,213.140 317.964,213.800 317.416 C 214.460 316.868,215.216 316.415,215.480 316.410 C 215.744 316.404,216.104 316.174,216.280 315.898 C 216.456 315.621,217.680 314.597,219.000 313.621 C 220.320 312.645,221.460 311.701,221.533 311.524 C 221.607 311.346,221.907 311.200,222.200 311.200 C 222.493 311.200,222.793 311.064,222.867 310.897 C 222.940 310.730,223.810 309.970,224.800 309.207 C 225.790 308.445,226.690 307.721,226.800 307.600 C 226.910 307.479,227.809 306.754,228.799 305.990 C 230.544 304.641,232.036 303.423,232.953 302.598 C 233.199 302.377,234.654 301.117,236.186 299.798 C 237.718 298.479,239.878 296.590,240.986 295.600 C 244.192 292.735,258.016 278.817,260.058 276.400 C 265.300 270.191,266.600 268.542,270.534 263.108 C 272.880 259.867,274.800 257.106,274.800 256.973 C 274.800 256.840,275.312 255.981,275.938 255.065 C 279.191 250.306,284.992 239.508,287.793 233.000 C 288.172 232.120,288.639 231.040,288.832 230.600 C 289.845 228.290,291.600 223.337,291.600 222.789 C 291.600 222.443,291.756 221.989,291.946 221.780 C 292.676 220.978,295.021 211.650,295.572 207.355 C 295.744 206.009,296.029 204.677,296.205 204.392 C 297.297 202.624,297.095 152.442,295.979 148.324 C 295.499 146.553,295.430 146.367,294.028 143.053 C 290.240 134.105,280.980 128.400,270.243 128.400 C 266.963 128.400,261.371 129.359,260.620 130.050 C 260.411 130.243,259.997 130.400,259.701 130.400 C 257.083 130.400,247.200 140.470,247.200 143.138 C 247.200 143.356,246.900 144.135,246.532 144.868 C 245.428 147.071,245.352 147.293,244.699 150.200 C 243.505 155.515,243.134 158.627,242.788 166.200 C 242.278 177.364,241.515 181.803,239.363 186.132 C 239.053 186.755,238.800 187.495,238.800 187.776 C 238.800 188.476,236.654 192.441,234.527 195.669 C 232.818 198.263,228.676 202.497,226.484 203.892 C 225.888 204.271,225.310 204.685,225.200 204.812 C 224.770 205.308,220.077 207.537,217.800 208.326 C 202.626 213.586,185.416 210.285,176.217 200.349 C 172.309 196.128,167.600 188.421,167.600 186.247 C 167.600 185.917,167.441 185.549,167.248 185.430 C 167.054 185.310,166.803 184.804,166.690 184.306 C 166.577 183.808,166.092 181.960,165.613 180.200 C 164.361 175.608,163.609 169.052,163.594 162.600 C 163.586 159.520,163.413 152.860,163.209 147.800 C 163.005 142.740,162.644 131.220,162.407 122.200 C 161.475 86.803,161.233 85.031,156.152 76.330 C 149.740 65.351,135.735 59.436,122.800 62.245 " stroke="none" fill="#c92546" fill-rule="evenodd"></path><path id="path1" d="M0.000 200.000 L 0.000 400.000 200.000 400.000 L 400.000 400.000 400.000 200.000 L 400.000 0.000 200.000 0.000 L 0.000 0.000 0.000 200.000 M138.252 61.978 C 147.390 64.409,154.139 69.986,158.369 78.600 C 161.820 85.631,162.790 91.595,162.796 105.843 C 162.798 111.806,162.979 119.006,163.198 121.843 C 163.417 124.679,163.803 135.280,164.056 145.400 C 164.638 168.701,164.909 174.324,165.514 175.726 C 165.781 176.345,166.000 177.323,166.000 177.898 C 166.000 179.782,167.690 184.784,169.965 189.632 C 170.644 191.079,171.200 192.387,171.200 192.538 C 171.200 194.040,177.802 201.304,181.442 203.807 C 187.696 208.107,193.585 209.757,202.600 209.735 C 210.793 209.715,215.212 208.865,221.000 206.195 C 225.231 204.244,233.200 197.677,233.200 196.143 C 233.200 195.881,233.335 195.607,233.500 195.533 C 234.587 195.050,237.811 188.536,239.339 183.736 C 241.005 178.501,241.329 176.480,241.640 169.400 C 242.010 160.959,242.581 154.687,243.193 152.371 C 243.450 151.397,243.843 149.880,244.068 149.000 C 245.721 142.513,250.140 135.735,255.000 132.226 C 257.216 130.627,258.704 129.850,262.400 128.363 C 265.834 126.982,279.480 127.908,281.380 129.651 C 281.589 129.843,282.015 130.000,282.326 130.000 C 282.638 130.000,284.105 130.806,285.588 131.792 C 291.724 135.871,296.090 142.855,297.346 150.600 C 298.406 157.140,297.821 201.330,296.596 207.200 C 296.298 208.630,295.753 211.240,295.386 213.000 C 294.647 216.538,294.069 218.663,293.578 219.651 C 293.400 220.009,293.132 220.956,292.982 221.755 C 292.832 222.555,292.550 223.307,292.355 223.428 C 292.160 223.549,292.000 223.990,292.000 224.410 C 292.000 224.830,291.705 225.854,291.345 226.686 C 290.984 227.519,290.546 228.560,290.372 229.000 C 288.263 234.313,284.582 242.100,281.958 246.800 C 279.173 251.788,272.821 261.804,271.400 263.448 C 271.180 263.703,270.640 264.417,270.200 265.034 C 264.194 273.465,255.681 282.999,245.766 292.402 C 241.193 296.738,233.818 303.305,231.684 304.941 C 231.088 305.398,230.510 305.873,230.400 305.997 C 230.290 306.120,229.390 306.841,228.400 307.600 C 227.410 308.359,226.510 309.074,226.400 309.190 C 225.708 309.917,221.538 313.137,217.600 315.983 C 215.070 317.812,212.940 319.464,212.867 319.654 C 212.793 319.844,212.493 320.000,212.200 320.000 C 211.907 320.000,211.607 320.135,211.533 320.300 C 211.377 320.651,210.471 321.296,203.773 325.826 C 199.319 328.838,197.200 329.825,197.200 328.886 C 197.200 328.714,196.615 328.232,195.900 327.816 C 195.185 327.401,194.510 326.953,194.400 326.821 C 194.290 326.689,193.665 326.240,193.010 325.823 C 192.356 325.406,191.636 324.908,191.410 324.716 C 191.185 324.525,189.560 323.283,187.800 321.956 C 186.040 320.630,184.239 319.242,183.799 318.872 C 183.358 318.503,182.188 317.575,181.199 316.810 C 180.209 316.046,179.310 315.326,179.200 315.209 C 179.090 315.093,177.740 313.974,176.200 312.723 C 174.660 311.471,172.837 309.942,172.149 309.324 C 171.461 308.706,169.848 307.300,168.564 306.200 C 167.280 305.100,165.142 303.211,163.814 302.003 C 160.632 299.107,145.459 283.953,143.184 281.396 C 137.967 275.537,134.471 271.387,131.400 267.412 C 130.080 265.703,128.685 263.939,128.300 263.491 C 127.915 263.044,127.600 262.559,127.600 262.414 C 127.600 262.269,127.271 261.797,126.868 261.365 C 126.465 260.933,125.796 260.044,125.380 259.390 C 124.964 258.735,123.943 257.284,123.112 256.164 C 122.280 255.044,121.600 253.934,121.600 253.697 C 121.600 253.460,121.459 253.207,121.287 253.133 C 120.831 252.939,116.400 245.797,116.400 245.257 C 116.400 245.006,116.242 244.800,116.049 244.800 C 115.750 244.800,108.703 230.932,107.513 228.000 C 107.289 227.450,106.934 226.665,106.723 226.257 C 106.512 225.848,105.992 224.408,105.568 223.057 C 105.144 221.705,104.642 220.240,104.453 219.800 C 104.064 218.895,103.103 215.790,102.471 213.400 C 102.238 212.520,101.767 210.866,101.424 209.725 C 101.081 208.584,100.800 207.246,100.800 206.753 C 100.800 206.260,100.632 205.304,100.427 204.628 C 99.706 202.254,98.782 192.947,98.776 188.000 C 98.773 185.250,98.586 180.660,98.361 177.800 C 97.568 167.712,96.271 97.586,96.797 93.200 C 97.238 89.526,97.749 86.923,98.290 85.600 C 98.515 85.050,99.020 83.626,99.413 82.435 C 102.746 72.329,110.190 64.972,120.200 61.892 C 123.319 60.932,134.523 60.986,138.252 61.978 M274.318 62.238 C 287.998 65.494,296.968 76.872,296.991 91.000 C 297.034 117.359,265.726 130.682,247.042 112.256 C 226.013 91.515,245.693 55.426,274.318 62.238 M262.400 80.661 C 261.410 81.208,260.199 82.162,259.709 82.780 L 258.818 83.905 260.347 84.917 L 261.876 85.929 263.038 84.979 C 263.677 84.456,264.425 84.022,264.700 84.014 C 264.975 84.006,265.200 83.841,265.200 83.647 C 265.200 83.452,265.560 83.199,266.000 83.084 C 266.636 82.918,266.800 82.538,266.800 81.237 C 266.800 79.214,265.362 79.026,262.400 80.661 M290.467 82.238 C 289.099 83.196,289.379 85.593,290.946 86.341 C 293.422 87.522,295.524 84.142,293.368 82.446 C 292.079 81.432,291.661 81.402,290.467 82.238 M257.304 86.500 C 255.925 88.251,256.308 89.200,258.392 89.200 C 260.769 89.200,260.979 88.648,259.203 87.066 C 257.824 85.837,257.826 85.838,257.304 86.500 M290.212 88.387 C 288.847 89.895,289.886 92.800,291.790 92.800 C 292.718 92.800,294.400 91.151,294.400 90.241 C 294.400 88.156,291.559 86.898,290.212 88.387 M290.549 94.975 C 289.227 95.910,289.103 97.539,290.264 98.700 C 292.417 100.853,295.706 97.952,293.863 95.527 C 293.108 94.534,291.541 94.273,290.549 94.975 M272.814 96.175 C 272.371 97.001,272.387 97.244,272.917 97.775 C 274.212 99.069,275.893 98.022,275.437 96.205 C 275.098 94.854,273.530 94.836,272.814 96.175 M218.800 340.183 C 232.632 342.024,235.948 345.508,226.400 348.169 C 216.050 351.053,182.913 350.729,179.107 347.707 C 178.828 347.486,177.889 347.176,177.020 347.019 C 173.826 346.442,173.881 344.025,177.121 342.536 C 183.532 339.590,205.165 338.369,218.800 340.183 " stroke="none" fill="#fbfbfb" fill-rule="evenodd"></path><path id="path2" d="M263.400 72.838 C 253.734 75.001,247.330 85.623,249.833 95.342 C 253.976 111.434,275.728 114.260,283.837 99.760 C 291.596 85.886,279.036 69.340,263.400 72.838 M267.520 81.280 C 267.414 83.070,267.258 83.386,266.198 83.955 C 265.538 84.310,264.430 85.005,263.737 85.500 C 262.408 86.449,261.015 86.671,260.600 86.000 C 260.464 85.780,260.072 85.600,259.729 85.600 C 259.291 85.600,259.468 85.971,260.323 86.845 C 261.514 88.064,261.617 89.018,260.629 89.694 C 259.917 90.182,256.525 90.036,256.116 89.500 C 255.527 88.729,256.311 85.676,257.223 85.188 C 257.650 84.959,258.000 84.514,258.000 84.200 C 258.000 81.924,264.888 77.810,266.920 78.873 C 267.497 79.175,267.616 79.653,267.520 81.280 M275.669 95.062 C 277.116 96.372,276.134 99.208,274.238 99.194 C 273.086 99.185,272.517 98.761,272.065 97.571 C 271.185 95.256,273.840 93.407,275.669 95.062 " stroke="none" fill="#2f3033" fill-rule="evenodd"></path><path id="path3" d="M120.800 61.834 C 119.530 62.354,119.512 62.383,120.600 62.143 C 121.260 61.998,122.520 61.749,123.400 61.590 L 125.000 61.300 123.600 61.280 C 122.830 61.270,121.570 61.519,120.800 61.834 M135.800 61.808 C 138.806 62.485,139.488 62.477,137.400 61.789 C 136.520 61.499,135.260 61.263,134.600 61.264 C 133.851 61.266,134.302 61.470,135.800 61.808 M260.800 62.370 C 230.440 70.543,230.885 113.285,261.400 119.992 C 287.552 125.739,307.110 96.231,291.871 74.018 C 285.358 64.523,271.751 59.422,260.800 62.370 M141.767 63.417 C 143.069 63.957,144.198 64.335,144.276 64.257 C 144.463 64.071,140.428 62.395,139.847 62.417 C 139.601 62.426,140.465 62.876,141.767 63.417 M115.200 63.800 C 114.650 64.114,114.380 64.372,114.600 64.372 C 114.820 64.372,115.450 64.114,116.000 63.800 C 116.550 63.486,116.820 63.228,116.600 63.228 C 116.380 63.228,115.750 63.486,115.200 63.800 M144.800 64.560 C 144.800 64.649,145.475 65.102,146.300 65.568 L 147.800 66.416 146.600 65.410 C 145.499 64.487,144.800 64.157,144.800 64.560 M111.000 66.245 C 110.560 66.586,109.851 67.116,109.424 67.423 C 108.997 67.730,108.727 68.059,108.824 68.154 C 108.921 68.248,109.720 67.715,110.600 66.969 C 112.208 65.605,112.494 65.088,111.000 66.245 M149.688 67.813 C 150.286 68.443,150.847 68.877,150.935 68.779 C 151.023 68.680,150.533 68.165,149.847 67.634 L 148.600 66.669 149.688 67.813 M106.541 70.259 C 105.694 71.282,104.820 72.317,104.599 72.559 C 103.837 73.398,101.941 76.474,102.092 76.626 C 102.176 76.710,102.995 75.658,103.911 74.289 C 104.827 72.920,106.212 71.105,106.989 70.256 C 107.765 69.407,108.400 68.642,108.400 68.556 C 108.400 68.145,107.960 68.548,106.541 70.259 M153.994 72.203 C 155.587 74.121,155.721 74.245,155.286 73.396 C 155.059 72.953,154.452 72.234,153.937 71.798 C 153.033 71.034,153.035 71.048,153.994 72.203 M272.064 72.570 C 280.365 74.554,286.404 82.220,286.398 90.764 C 286.385 107.541,266.304 115.887,254.497 104.022 C 241.253 90.711,253.821 68.208,272.064 72.570 M263.887 79.375 C 258.791 81.193,257.330 83.897,260.477 85.689 L 261.953 86.531 263.277 85.555 C 264.004 85.018,265.275 84.228,266.100 83.799 C 267.378 83.134,267.600 82.820,267.600 81.683 C 267.600 78.921,266.710 78.368,263.887 79.375 M158.414 79.424 C 158.439 80.094,159.572 81.830,159.573 81.200 C 159.574 80.870,159.310 80.251,158.987 79.824 C 158.664 79.396,158.406 79.216,158.414 79.424 M266.800 81.237 C 266.800 82.538,266.636 82.918,266.000 83.084 C 265.560 83.199,265.200 83.452,265.200 83.647 C 265.200 83.841,264.975 84.006,264.700 84.014 C 264.425 84.022,263.677 84.456,263.038 84.979 L 261.876 85.929 260.347 84.917 L 258.818 83.905 259.709 82.780 C 262.228 79.600,266.800 78.605,266.800 81.237 M99.291 82.500 C 98.610 84.384,98.704 84.894,99.426 83.230 C 99.753 82.477,99.966 81.699,99.901 81.502 C 99.835 81.305,99.560 81.754,99.291 82.500 M293.368 82.446 C 295.524 84.142,293.422 87.522,290.946 86.341 C 289.379 85.593,289.099 83.196,290.467 82.238 C 291.661 81.402,292.079 81.432,293.368 82.446 M159.620 82.000 C 159.616 82.110,159.871 82.920,160.188 83.800 C 160.505 84.680,160.766 85.040,160.768 84.600 C 160.771 83.935,159.645 81.385,159.620 82.000 M98.018 86.356 C 97.749 87.005,97.614 87.866,97.718 88.268 C 97.867 88.842,97.917 88.801,97.954 88.074 C 97.979 87.564,98.195 86.784,98.432 86.339 C 98.670 85.895,98.784 85.451,98.686 85.353 C 98.588 85.255,98.288 85.706,98.018 86.356 M256.843 85.748 C 256.593 86.050,256.346 86.995,256.294 87.848 L 256.200 89.400 258.600 89.400 C 261.727 89.400,262.096 88.377,259.664 86.450 C 257.901 85.054,257.501 84.955,256.843 85.748 M160.834 86.400 C 160.846 86.730,161.011 87.360,161.200 87.800 L 161.544 88.600 161.566 87.800 C 161.578 87.360,161.413 86.730,161.200 86.400 C 160.855 85.867,160.815 85.867,160.834 86.400 M259.203 87.066 C 260.979 88.648,260.769 89.200,258.392 89.200 C 256.405 89.200,256.387 89.189,256.648 88.100 C 257.190 85.831,257.621 85.656,259.203 87.066 M293.474 88.470 C 295.750 90.608,292.819 94.039,290.394 92.076 C 289.308 91.196,289.223 89.479,290.212 88.387 C 291.142 87.359,292.324 87.389,293.474 88.470 M97.049 90.215 C 96.912 90.573,96.818 91.346,96.840 91.933 C 96.873 92.791,96.952 92.695,97.246 91.440 C 97.622 89.839,97.495 89.053,97.049 90.215 M161.878 91.200 C 162.015 92.190,162.245 96.870,162.391 101.600 L 162.654 110.200 162.709 102.400 C 162.746 96.977,162.590 93.808,162.196 92.000 C 161.884 90.570,161.741 90.210,161.878 91.200 M293.863 95.527 C 294.996 97.018,294.227 98.957,292.320 99.416 C 290.824 99.777,289.199 98.187,289.492 96.650 C 289.899 94.523,292.576 93.835,293.863 95.527 M96.560 100.600 C 96.561 103.900,96.622 105.197,96.698 103.482 C 96.773 101.767,96.772 99.067,96.697 97.482 C 96.621 95.897,96.559 97.300,96.560 100.600 M272.480 95.280 C 271.626 96.134,271.911 97.923,273.016 98.648 C 274.964 99.924,277.144 97.738,276.020 95.637 C 275.513 94.690,273.294 94.466,272.480 95.280 M275.437 96.205 C 275.893 98.022,274.212 99.069,272.917 97.775 C 272.387 97.244,272.371 97.001,272.814 96.175 C 273.530 94.836,275.098 94.854,275.437 96.205 M96.845 126.233 C 96.869 131.495,97.017 137.510,97.172 139.600 C 97.327 141.690,97.372 137.460,97.272 130.200 C 97.172 122.940,97.025 116.925,96.945 116.833 C 96.865 116.742,96.820 120.972,96.845 126.233 M163.093 126.600 C 163.206 131.000,163.366 134.675,163.449 134.767 C 163.711 135.056,163.509 124.736,163.192 121.600 C 163.014 119.847,162.973 121.925,163.093 126.600 M266.100 127.876 C 266.485 127.976,267.115 127.976,267.500 127.876 C 267.885 127.775,267.570 127.693,266.800 127.693 C 266.030 127.693,265.715 127.775,266.100 127.876 M272.305 127.883 C 272.802 127.979,273.522 127.975,273.905 127.875 C 274.287 127.775,273.880 127.696,273.000 127.701 C 272.120 127.705,271.807 127.787,272.305 127.883 M289.183 134.900 C 290.164 135.945,291.019 136.800,291.083 136.800 C 291.384 136.800,291.066 136.441,289.300 134.783 L 287.400 133.000 289.183 134.900 M163.763 144.400 C 163.763 148.030,163.823 149.515,163.898 147.700 C 163.972 145.885,163.972 142.915,163.898 141.100 C 163.823 139.285,163.763 140.770,163.763 144.400 M97.772 159.400 C 97.772 164.460,97.829 166.475,97.899 163.877 C 97.969 161.280,97.968 157.140,97.898 154.677 C 97.828 152.215,97.771 154.340,97.772 159.400 M297.485 154.000 C 297.607 155.430,297.772 156.675,297.853 156.767 C 298.120 157.070,297.911 153.822,297.585 152.600 C 297.382 151.844,297.346 152.362,297.485 154.000 M242.493 156.800 C 242.493 157.570,242.575 157.885,242.676 157.500 C 242.776 157.115,242.776 156.485,242.676 156.100 C 242.575 155.715,242.493 156.030,242.493 156.800 M164.108 161.400 C 164.095 163.600,164.217 167.020,164.379 169.000 L 164.673 172.600 164.690 169.000 C 164.699 167.020,164.577 163.600,164.419 161.400 L 164.132 157.400 164.108 161.400 M241.853 162.836 C 241.714 163.531,241.629 165.653,241.665 167.550 L 241.730 171.000 242.001 166.400 C 242.288 161.512,242.259 160.806,241.853 162.836 M297.779 180.600 C 297.779 187.860,297.833 190.886,297.899 187.325 C 297.965 183.764,297.966 177.824,297.899 174.125 C 297.833 170.426,297.779 173.340,297.779 180.600 M98.296 175.000 C 98.408 178.300,98.568 181.075,98.650 181.167 C 98.894 181.438,98.720 175.246,98.393 172.000 C 98.199 170.067,98.164 171.134,98.296 175.000 M164.850 174.800 C 164.842 175.130,165.085 176.300,165.391 177.400 C 165.914 179.286,165.947 179.320,165.955 178.000 C 165.963 176.672,164.881 173.537,164.850 174.800 M166.012 180.000 C 166.012 180.330,166.187 180.870,166.400 181.200 C 166.745 181.733,166.788 181.733,166.788 181.200 C 166.788 180.870,166.613 180.330,166.400 180.000 C 166.055 179.467,166.012 179.467,166.012 180.000 M166.834 182.800 C 166.837 183.539,167.922 185.977,167.968 185.346 C 167.985 185.096,167.737 184.286,167.416 183.546 C 167.094 182.806,166.832 182.470,166.834 182.800 M168.007 186.276 C 168.019 186.785,171.161 193.048,171.180 192.600 C 171.189 192.380,170.658 191.120,170.000 189.800 C 169.342 188.480,168.802 187.186,168.802 186.924 C 168.801 186.662,168.620 186.336,168.400 186.200 C 168.180 186.064,168.003 186.098,168.007 186.276 M237.665 188.217 C 236.995 189.688,237.123 190.002,237.847 188.665 C 238.186 188.040,238.388 187.454,238.296 187.363 C 238.205 187.271,237.921 187.656,237.665 188.217 M98.909 193.200 C 98.909 194.190,98.987 194.595,99.082 194.100 C 99.178 193.605,99.178 192.795,99.082 192.300 C 98.987 191.805,98.909 192.210,98.909 193.200 M235.624 192.518 C 235.323 193.003,234.815 193.805,234.493 194.300 C 234.171 194.795,234.016 195.200,234.149 195.200 C 234.460 195.200,236.504 191.971,236.314 191.780 C 236.235 191.701,235.924 192.033,235.624 192.518 M172.000 194.400 C 172.470 195.060,172.944 195.600,173.054 195.600 C 173.164 195.600,172.870 195.060,172.400 194.400 C 171.930 193.740,171.456 193.200,171.346 193.200 C 171.236 193.200,171.530 193.740,172.000 194.400 M297.324 196.200 C 297.326 197.520,297.401 198.012,297.490 197.293 C 297.579 196.574,297.577 195.494,297.486 194.893 C 297.395 194.292,297.322 194.880,297.324 196.200 M99.293 196.400 C 99.293 197.170,99.375 197.485,99.476 197.100 C 99.576 196.715,99.576 196.085,99.476 195.700 C 99.375 195.315,99.293 195.630,99.293 196.400 M174.000 197.200 C 174.470 197.860,174.944 198.400,175.054 198.400 C 175.164 198.400,174.870 197.860,174.400 197.200 C 173.930 196.540,173.456 196.000,173.346 196.000 C 173.236 196.000,173.530 196.540,174.000 197.200 M229.990 199.872 C 228.345 201.562,227.630 202.417,228.400 201.772 C 229.854 200.555,233.438 196.800,233.147 196.800 C 233.055 196.800,231.634 198.183,229.990 199.872 M178.800 202.146 C 178.800 202.256,179.340 202.730,180.000 203.200 C 180.660 203.670,181.200 203.964,181.200 203.854 C 181.200 203.744,180.660 203.270,180.000 202.800 C 179.340 202.330,178.800 202.036,178.800 202.146 M225.281 203.772 C 223.423 205.085,223.162 205.461,224.731 204.562 C 225.463 204.143,226.250 203.575,226.480 203.300 C 227.071 202.593,226.793 202.702,225.281 203.772 M181.801 204.402 C 182.069 204.836,184.400 206.134,184.400 205.850 C 184.400 205.756,183.759 205.301,182.976 204.839 C 182.193 204.377,181.664 204.180,181.801 204.402 M191.400 208.800 C 191.840 208.989,192.470 209.144,192.800 209.144 C 193.178 209.144,193.104 209.017,192.600 208.800 C 192.160 208.611,191.530 208.456,191.200 208.456 C 190.822 208.456,190.896 208.583,191.400 208.800 M213.400 208.800 C 212.896 209.017,212.822 209.144,213.200 209.144 C 213.530 209.144,214.160 208.989,214.600 208.800 C 215.104 208.583,215.178 208.456,214.800 208.456 C 214.470 208.456,213.840 208.611,213.400 208.800 M194.033 209.344 C 194.125 209.423,195.100 209.591,196.200 209.718 C 197.487 209.867,197.915 209.826,197.400 209.603 C 196.636 209.272,193.686 209.045,194.033 209.344 M207.800 209.608 C 207.292 209.831,207.876 209.874,209.400 209.724 C 210.720 209.595,211.875 209.424,211.967 209.344 C 212.321 209.037,208.557 209.275,207.800 209.608 M200.713 210.295 C 201.876 210.376,203.676 210.376,204.713 210.293 C 205.751 210.211,204.800 210.145,202.600 210.146 C 200.400 210.147,199.551 210.214,200.713 210.295 M286.065 238.217 C 285.395 239.688,285.523 240.002,286.247 238.665 C 286.586 238.040,286.788 237.454,286.696 237.363 C 286.605 237.271,286.321 237.656,286.065 238.217 M256.778 281.100 L 255.400 282.600 256.900 281.222 C 258.296 279.938,258.584 279.600,258.278 279.600 C 258.212 279.600,257.537 280.275,256.778 281.100 M244.400 293.400 C 243.428 294.390,242.723 295.200,242.833 295.200 C 242.943 295.200,243.828 294.390,244.800 293.400 C 245.772 292.410,246.477 291.600,246.367 291.600 C 246.257 291.600,245.372 292.410,244.400 293.400 M164.400 302.600 C 165.146 303.370,165.847 304.000,165.957 304.000 C 166.067 304.000,165.546 303.370,164.800 302.600 C 164.054 301.830,163.353 301.200,163.243 301.200 C 163.133 301.200,163.654 301.830,164.400 302.600 M190.989 339.771 C 181.163 340.758,175.622 342.356,174.869 344.422 C 174.359 345.820,175.059 346.665,177.020 347.019 C 177.889 347.176,178.828 347.486,179.107 347.707 C 182.913 350.729,216.050 351.053,226.400 348.169 C 233.613 346.159,233.442 343.287,226.000 341.440 C 218.538 339.589,201.091 338.757,190.989 339.771 " stroke="none" fill="#c6c7cb" fill-rule="evenodd"></path><path id="path4" d="M124.000 61.464 C 110.205 63.601,100.765 73.933,97.431 90.543 C 96.496 95.202,96.609 107.984,98.032 158.200 C 99.146 197.484,99.385 200.665,101.988 210.800 C 102.186 211.570,102.549 213.010,102.795 214.000 C 103.246 215.812,103.425 216.352,105.518 222.200 C 107.696 228.289,111.810 237.084,115.808 244.200 C 117.118 246.532,123.686 256.875,124.357 257.663 C 124.608 257.958,125.779 259.567,126.958 261.238 C 128.137 262.909,129.381 264.619,129.722 265.038 C 130.063 265.457,132.015 267.870,134.060 270.400 C 138.228 275.557,138.456 275.823,143.474 281.400 C 153.003 291.989,169.352 307.365,178.989 314.800 C 180.273 315.790,181.970 317.146,182.761 317.813 C 183.553 318.481,184.920 319.551,185.800 320.192 C 186.680 320.833,187.490 321.466,187.600 321.598 C 187.850 321.899,195.815 327.640,197.281 328.577 C 198.357 329.264,198.376 329.257,201.481 327.160 C 203.196 326.001,205.680 324.333,207.000 323.453 C 211.251 320.621,219.871 314.243,224.801 310.283 C 225.132 310.017,226.212 309.175,227.201 308.410 C 228.191 307.646,229.090 306.922,229.200 306.801 C 229.310 306.681,230.480 305.687,231.800 304.594 C 241.755 296.345,255.416 283.137,261.408 275.967 C 268.312 267.706,272.340 262.199,277.193 254.387 C 278.957 251.548,280.400 249.126,280.400 249.004 C 280.400 248.883,280.874 248.034,281.453 247.117 C 284.718 241.944,289.831 230.476,292.561 222.200 C 294.818 215.359,294.547 216.455,296.608 205.875 C 298.396 196.704,298.079 152.114,296.187 146.480 C 288.301 123.002,257.233 120.821,246.636 143.000 C 246.006 144.320,245.351 145.687,245.181 146.037 C 243.621 149.254,242.396 158.209,241.793 170.800 C 240.621 195.285,225.634 210.400,202.530 210.400 C 185.479 210.400,171.106 199.297,166.801 182.800 C 166.600 182.030,166.149 180.320,165.798 179.000 C 164.622 174.574,164.406 171.497,163.785 150.400 C 162.518 107.354,162.007 92.162,161.780 90.800 C 158.393 70.457,143.017 58.517,124.000 61.464 M135.169 62.231 C 148.433 64.670,156.660 72.643,160.430 86.711 C 161.375 90.239,161.736 96.710,162.407 122.200 C 162.644 131.220,163.005 142.740,163.209 147.800 C 163.413 152.860,163.586 159.520,163.594 162.600 C 163.609 169.052,164.361 175.608,165.613 180.200 C 166.092 181.960,166.577 183.808,166.690 184.306 C 166.803 184.804,167.054 185.310,167.248 185.430 C 167.441 185.549,167.600 185.917,167.600 186.247 C 167.600 188.421,172.309 196.128,176.217 200.349 C 185.416 210.285,202.626 213.586,217.800 208.326 C 220.077 207.537,224.770 205.308,225.200 204.812 C 225.310 204.685,225.888 204.271,226.484 203.892 C 228.676 202.497,232.818 198.263,234.527 195.669 C 236.654 192.441,238.800 188.476,238.800 187.776 C 238.800 187.495,239.053 186.755,239.363 186.132 C 241.515 181.803,242.278 177.364,242.788 166.200 C 243.134 158.627,243.505 155.515,244.699 150.200 C 245.352 147.293,245.428 147.071,246.532 144.868 C 246.900 144.135,247.200 143.356,247.200 143.138 C 247.200 140.470,257.083 130.400,259.701 130.400 C 259.997 130.400,260.411 130.243,260.620 130.050 C 262.061 128.724,271.689 127.949,275.494 128.853 C 283.571 130.771,287.522 133.199,291.441 138.653 C 292.978 140.792,293.628 142.035,295.182 145.800 C 295.976 147.724,296.470 150.338,296.793 154.324 C 297.197 159.314,296.676 203.629,296.205 204.392 C 296.029 204.677,295.744 206.009,295.572 207.355 C 295.021 211.650,292.676 220.978,291.946 221.780 C 291.756 221.989,291.600 222.443,291.600 222.789 C 291.600 223.337,289.845 228.290,288.832 230.600 C 288.639 231.040,288.172 232.120,287.793 233.000 C 284.992 239.508,279.191 250.306,275.938 255.065 C 275.312 255.981,274.800 256.840,274.800 256.973 C 274.800 257.106,272.880 259.867,270.534 263.108 C 266.600 268.542,265.300 270.191,260.058 276.400 C 258.016 278.817,244.192 292.735,240.986 295.600 C 239.878 296.590,237.718 298.479,236.186 299.798 C 234.654 301.117,233.199 302.377,232.953 302.598 C 232.036 303.423,230.544 304.641,228.799 305.990 C 227.809 306.754,226.910 307.479,226.800 307.600 C 226.690 307.721,225.790 308.445,224.800 309.207 C 223.810 309.970,222.940 310.730,222.867 310.897 C 222.793 311.064,222.493 311.200,222.200 311.200 C 221.907 311.200,221.607 311.346,221.533 311.524 C 221.460 311.701,220.320 312.645,219.000 313.621 C 217.680 314.597,216.456 315.621,216.280 315.898 C 216.104 316.174,215.744 316.404,215.480 316.410 C 215.216 316.415,214.460 316.868,213.800 317.416 C 213.140 317.964,210.800 319.657,208.600 321.179 C 206.400 322.700,204.383 324.137,204.117 324.372 C 203.851 324.608,203.446 324.800,203.217 324.800 C 202.988 324.800,202.800 324.960,202.800 325.157 C 202.800 325.353,202.350 325.626,201.800 325.764 C 201.250 325.902,200.800 326.192,200.800 326.408 C 200.800 326.623,200.530 326.800,200.200 326.800 C 199.870 326.800,199.600 326.961,199.600 327.157 C 199.600 328.215,196.208 327.497,195.675 326.326 C 195.607 326.175,194.617 325.459,193.475 324.735 C 192.334 324.011,191.220 323.224,191.000 322.986 C 190.337 322.270,187.677 320.400,187.322 320.400 C 187.139 320.400,186.652 319.950,186.239 319.400 C 185.826 318.850,185.325 318.400,185.127 318.400 C 184.928 318.400,184.280 317.950,183.687 317.400 C 183.093 316.850,182.478 316.400,182.318 316.400 C 182.158 316.400,181.517 315.905,180.894 315.300 C 180.270 314.695,179.168 313.750,178.445 313.200 C 177.722 312.650,176.889 311.975,176.594 311.700 C 176.299 311.425,175.976 311.200,175.877 311.200 C 175.778 311.200,174.998 310.522,174.144 309.693 C 173.290 308.865,171.880 307.650,171.009 306.993 C 170.139 306.337,168.779 305.170,167.988 304.400 C 167.198 303.630,164.852 301.476,162.775 299.613 C 158.146 295.460,147.594 284.907,143.800 280.637 C 142.260 278.903,140.526 276.986,139.946 276.376 C 139.366 275.766,138.627 274.888,138.302 274.425 C 137.978 273.962,137.100 272.912,136.352 272.091 C 135.604 271.271,134.368 269.790,133.606 268.800 C 132.844 267.810,132.109 266.910,131.972 266.800 C 127.779 263.431,111.996 236.879,107.600 225.800 C 106.902 224.040,106.186 222.240,106.009 221.800 C 105.586 220.748,103.429 213.840,102.887 211.800 C 100.623 203.284,99.200 191.408,99.200 181.031 C 99.200 177.548,99.021 171.256,98.802 167.049 C 98.584 162.842,98.217 149.860,97.988 138.200 C 97.759 126.540,97.461 112.290,97.326 106.532 C 97.052 94.901,97.793 87.762,99.631 84.305 C 99.834 83.923,100.000 83.374,100.000 83.084 C 100.000 82.052,103.165 76.036,105.126 73.341 C 111.833 64.122,122.998 59.993,135.169 62.231 M266.291 72.289 C 267.001 72.377,268.261 72.379,269.091 72.292 C 269.921 72.205,269.340 72.133,267.800 72.131 C 266.260 72.129,265.581 72.200,266.291 72.289 M273.946 73.416 C 274.686 73.737,275.406 73.994,275.546 73.986 C 276.066 73.957,273.776 72.828,273.200 72.830 C 272.870 72.831,273.206 73.094,273.946 73.416 M258.000 74.836 C 257.336 75.379,257.269 75.515,257.800 75.240 C 259.105 74.566,259.828 74.012,259.400 74.015 C 259.180 74.017,258.550 74.386,258.000 74.836 M254.557 77.564 C 252.829 79.298,250.860 82.000,251.324 82.000 C 251.417 82.000,251.941 81.325,252.488 80.500 C 253.035 79.675,254.272 78.235,255.237 77.300 C 256.202 76.365,256.884 75.600,256.753 75.600 C 256.622 75.600,255.634 76.484,254.557 77.564 M280.646 77.602 C 281.552 78.591,282.767 80.117,283.346 80.993 C 283.926 81.869,284.400 82.441,284.400 82.265 C 284.400 81.651,282.066 78.591,280.538 77.202 L 279.000 75.804 280.646 77.602 M257.895 84.359 C 257.795 84.742,258.145 85.340,258.727 85.779 C 259.279 86.196,259.611 86.341,259.463 86.103 C 259.316 85.864,259.331 85.608,259.498 85.534 C 259.664 85.460,259.410 85.017,258.934 84.549 C 258.173 83.801,258.047 83.778,257.895 84.359 M249.400 86.400 C 249.248 87.091,249.207 87.741,249.309 87.842 C 249.411 87.944,249.609 87.453,249.750 86.750 C 250.083 85.083,249.760 84.760,249.400 86.400 M286.093 88.400 C 286.093 89.170,286.175 89.485,286.276 89.100 C 286.376 88.715,286.376 88.085,286.276 87.700 C 286.175 87.315,286.093 87.630,286.093 88.400 M248.920 90.800 C 248.920 92.010,248.995 92.505,249.087 91.900 C 249.178 91.295,249.178 90.305,249.087 89.700 C 248.995 89.095,248.920 89.590,248.920 90.800 M255.949 89.300 C 256.361 89.825,257.011 89.982,258.549 89.928 L 260.600 89.856 258.610 89.702 C 257.516 89.618,256.346 89.335,256.010 89.074 C 255.477 88.660,255.469 88.688,255.949 89.300 M249.268 94.200 C 249.262 94.640,249.411 95.360,249.600 95.800 C 250.038 96.819,250.038 95.768,249.600 94.400 C 249.343 93.596,249.277 93.557,249.268 94.200 M283.782 99.916 C 282.692 101.985,280.165 104.664,277.805 106.255 C 276.708 106.995,275.956 107.600,276.133 107.600 C 277.857 107.600,285.610 99.477,284.728 98.595 C 284.638 98.505,284.213 99.099,283.782 99.916 M250.800 98.941 C 250.800 99.324,252.765 102.400,253.010 102.400 C 253.120 102.400,252.734 101.635,252.151 100.700 C 250.926 98.734,250.800 98.569,250.800 98.941 M256.000 105.410 C 256.000 105.693,259.199 107.735,259.366 107.559 C 259.448 107.471,258.725 106.912,257.758 106.315 C 256.791 105.719,256.000 105.311,256.000 105.410 M262.200 108.800 C 262.640 108.989,263.270 109.144,263.600 109.144 C 263.978 109.144,263.904 109.017,263.400 108.800 C 262.960 108.611,262.330 108.456,262.000 108.456 C 261.622 108.456,261.696 108.583,262.200 108.800 M271.800 108.800 C 271.296 109.017,271.222 109.144,271.600 109.144 C 271.930 109.144,272.560 108.989,273.000 108.800 C 273.504 108.583,273.578 108.456,273.200 108.456 C 272.870 108.456,272.240 108.611,271.800 108.800 M265.900 109.493 C 266.835 109.577,268.365 109.577,269.300 109.493 C 270.235 109.409,269.470 109.340,267.600 109.340 C 265.730 109.340,264.965 109.409,265.900 109.493 " stroke="none" fill="#e891a2" fill-rule="evenodd"></path></g></svg>